M48
; DRILL file {KiCad (5.1.10)-1} date 08/05/21 17:21:51
; FORMAT={-:-/ absolute / inch / decimal}
; #@! TF.CreationDate,2021-08-05T17:21:51+02:00
; #@! TF.GenerationSoftware,Kicad,Pcbnew,(5.1.10)-1
; #@! TF.FileFunction,Plated,1,2,PTH
FMAT,2
INCH
T1C0.0157
T2C0.0394
%
G90
G05
T1
X8.03Y-4.5624
T2
X7.0687Y-4.0678
X7.0687Y-4.3237
X7.228Y-4.527
X7.2459Y-4.0678
X7.2459Y-4.3237
X7.328Y-4.527
X7.428Y-4.527
X7.4436Y-4.0682
X7.4436Y-4.3241
X7.528Y-4.527
X7.6208Y-4.0682
X7.6208Y-4.3241
X7.628Y-4.527
X7.728Y-4.527
X7.8204Y-4.0681
X7.8204Y-4.324
X7.9976Y-4.0681
X7.9976Y-4.324
X8.1138Y-4.2368
X8.1138Y-4.3368
X8.1138Y-4.4368
T0
M30
