%TF.GenerationSoftware,KiCad,Pcbnew,(5.1.10)-1*%
%TF.CreationDate,2021-08-05T17:21:45+02:00*%
%TF.ProjectId,mp3_buttons_pcb,6d70335f-6275-4747-946f-6e735f706362,rev?*%
%TF.SameCoordinates,Original*%
%TF.FileFunction,Legend,Top*%
%TF.FilePolarity,Positive*%
%FSLAX46Y46*%
G04 Gerber Fmt 4.6, Leading zero omitted, Abs format (unit mm)*
G04 Created by KiCad (PCBNEW (5.1.10)-1) date 2021-08-05 17:21:45*
%MOMM*%
%LPD*%
G01*
G04 APERTURE LIST*
%ADD10C,0.150000*%
%ADD11C,0.120000*%
G04 APERTURE END LIST*
D10*
X179715512Y-99642680D02*
X180286940Y-99642680D01*
X179876226Y-100642680D02*
X180001226Y-99642680D01*
X180810750Y-99642680D02*
X181001226Y-99642680D01*
X181090512Y-99690300D01*
X181173845Y-99785538D01*
X181197654Y-99976014D01*
X181155988Y-100309347D01*
X181084559Y-100499823D01*
X180977416Y-100595061D01*
X180876226Y-100642680D01*
X180685750Y-100642680D01*
X180596464Y-100595061D01*
X180513131Y-100499823D01*
X180489321Y-100309347D01*
X180530988Y-99976014D01*
X180602416Y-99785538D01*
X180709559Y-99690300D01*
X180810750Y-99642680D01*
X181542892Y-100642680D02*
X181667892Y-99642680D01*
X182048845Y-99642680D01*
X182138131Y-99690300D01*
X182179797Y-99737919D01*
X182215512Y-99833157D01*
X182197654Y-99976014D01*
X182138131Y-100071252D01*
X182084559Y-100118871D01*
X181983369Y-100166490D01*
X181602416Y-100166490D01*
X183263131Y-100595061D02*
X183400035Y-100642680D01*
X183638131Y-100642680D01*
X183739321Y-100595061D01*
X183792892Y-100547442D01*
X183852416Y-100452204D01*
X183864321Y-100356966D01*
X183828607Y-100261728D01*
X183786940Y-100214109D01*
X183697654Y-100166490D01*
X183513131Y-100118871D01*
X183423845Y-100071252D01*
X183382178Y-100023633D01*
X183346464Y-99928395D01*
X183358369Y-99833157D01*
X183417892Y-99737919D01*
X183471464Y-99690300D01*
X183572654Y-99642680D01*
X183810750Y-99642680D01*
X183947654Y-99690300D01*
X184257178Y-100642680D02*
X184382178Y-99642680D01*
X184733369Y-100642680D02*
X184858369Y-99642680D01*
X185096464Y-99642680D01*
X185233369Y-99690300D01*
X185316702Y-99785538D01*
X185352416Y-99880776D01*
X185376226Y-100071252D01*
X185358369Y-100214109D01*
X185286940Y-100404585D01*
X185227416Y-100499823D01*
X185120273Y-100595061D01*
X184971464Y-100642680D01*
X184733369Y-100642680D01*
X185798845Y-100118871D02*
X186132178Y-100118871D01*
X186209559Y-100642680D02*
X185733369Y-100642680D01*
X185858369Y-99642680D01*
X186334559Y-99642680D01*
D11*
%TO.C,J1*%
X182261200Y-116315800D02*
X182261200Y-114985800D01*
X183591200Y-116315800D02*
X182261200Y-116315800D01*
X184861200Y-116315800D02*
X184861200Y-113655800D01*
X184861200Y-113655800D02*
X197621200Y-113655800D01*
X184861200Y-116315800D02*
X197621200Y-116315800D01*
X197621200Y-116315800D02*
X197621200Y-113655800D01*
%TO.C,J2*%
X207420520Y-114024720D02*
X206090520Y-114024720D01*
X207420520Y-112694720D02*
X207420520Y-114024720D01*
X207420520Y-111424720D02*
X204760520Y-111424720D01*
X204760520Y-111424720D02*
X204760520Y-106284720D01*
X207420520Y-111424720D02*
X207420520Y-106284720D01*
X207420520Y-106284720D02*
X204760520Y-106284720D01*
%TD*%
M02*
