%TF.GenerationSoftware,KiCad,Pcbnew,(5.1.10)-1*%
%TF.CreationDate,2021-08-05T17:04:43+02:00*%
%TF.ProjectId,kiCAD_projects,6b694341-445f-4707-926f-6a656374732e,rev?*%
%TF.SameCoordinates,Original*%
%TF.FileFunction,Copper,L1,Top*%
%TF.FilePolarity,Positive*%
%FSLAX46Y46*%
G04 Gerber Fmt 4.6, Leading zero omitted, Abs format (unit mm)*
G04 Created by KiCad (PCBNEW (5.1.10)-1) date 2021-08-05 17:04:43*
%MOMM*%
%LPD*%
G01*
G04 APERTURE LIST*
%TA.AperFunction,ComponentPad*%
%ADD10O,1.700000X1.700000*%
%TD*%
%TA.AperFunction,ComponentPad*%
%ADD11R,1.700000X1.700000*%
%TD*%
%TA.AperFunction,ComponentPad*%
%ADD12R,1.350000X1.350000*%
%TD*%
%TA.AperFunction,ComponentPad*%
%ADD13C,1.350000*%
%TD*%
%TA.AperFunction,ComponentPad*%
%ADD14R,1.727200X1.727200*%
%TD*%
%TA.AperFunction,ComponentPad*%
%ADD15C,1.727200*%
%TD*%
%TA.AperFunction,ViaPad*%
%ADD16C,0.800000*%
%TD*%
%TA.AperFunction,Conductor*%
%ADD17C,1.000000*%
%TD*%
%TA.AperFunction,Conductor*%
%ADD18C,0.900000*%
%TD*%
%TA.AperFunction,Conductor*%
%ADD19C,0.600000*%
%TD*%
%TA.AperFunction,Conductor*%
%ADD20C,0.500000*%
%TD*%
%TA.AperFunction,Conductor*%
%ADD21C,0.254000*%
%TD*%
%TA.AperFunction,Conductor*%
%ADD22C,0.100000*%
%TD*%
G04 APERTURE END LIST*
D10*
%TO.P,J5,2*%
%TO.N,Net-(J5-Pad2)*%
X515147560Y567730640D03*
D11*
%TO.P,J5,1*%
%TO.N,GND*%
X515147560Y565190640D03*
%TD*%
D10*
%TO.P,J3,2*%
%TO.N,Net-(J3-Pad2)*%
X487205020Y567710320D03*
D11*
%TO.P,J3,1*%
%TO.N,GND*%
X487205020Y565170320D03*
%TD*%
D12*
%TO.P,U1,1*%
%TO.N,Net-(A1-Pad5V)*%
X509905000Y578612000D03*
D13*
%TO.P,U1,2*%
%TO.N,Net-(R2-Pad2)*%
X509905000Y581152000D03*
%TO.P,U1,3*%
%TO.N,Net-(R1-Pad2)*%
X509905000Y583692000D03*
%TO.P,U1,4*%
%TO.N,N/C*%
X509905000Y586232000D03*
%TO.P,U1,5*%
X509905000Y588772000D03*
%TO.P,U1,6*%
%TO.N,Net-(J2-Pad3)*%
X509905000Y591312000D03*
%TO.P,U1,7*%
%TO.N,GND*%
X509905000Y593852000D03*
%TO.P,U1,8*%
%TO.N,Net-(J2-Pad2)*%
X509905000Y596392000D03*
%TO.P,U1,9*%
%TO.N,N/C*%
X492125000Y596392000D03*
%TO.P,U1,10*%
X492125000Y593852000D03*
%TO.P,U1,11*%
X492125000Y591312000D03*
%TO.P,U1,12*%
X492125000Y588772000D03*
%TO.P,U1,13*%
X492125000Y586232000D03*
%TO.P,U1,14*%
X492125000Y583692000D03*
%TO.P,U1,15*%
X492125000Y581152000D03*
%TO.P,U1,16*%
%TO.N,Net-(A1-PadD2)*%
X492125000Y578612000D03*
%TD*%
D14*
%TO.P,A1,D1*%
%TO.N,N/C*%
X494817400Y570255400D03*
D15*
%TO.P,A1,D0*%
X494817400Y567715400D03*
%TO.P,A1,RST1*%
X494817400Y565175400D03*
%TO.P,A1,GND1*%
X494817400Y562635400D03*
%TO.P,A1,D2*%
%TO.N,Net-(A1-PadD2)*%
X494817400Y560095400D03*
%TO.P,A1,D3*%
%TO.N,Net-(A1-PadD3)*%
X494817400Y557555400D03*
%TO.P,A1,D4*%
%TO.N,N/C*%
X494817400Y555015400D03*
%TO.P,A1,D5*%
%TO.N,Net-(A1-PadD5)*%
X494817400Y552475400D03*
%TO.P,A1,D6*%
%TO.N,Net-(A1-PadD6)*%
X494817400Y549935400D03*
%TO.P,A1,D7*%
%TO.N,Net-(A1-PadD7)*%
X494817400Y547395400D03*
%TO.P,A1,D8*%
%TO.N,Net-(A1-PadD8)*%
X494817400Y544855400D03*
%TO.P,A1,D9*%
%TO.N,Net-(A1-PadD9)*%
X494817400Y542315400D03*
%TO.P,A1,D10*%
%TO.N,Net-(A1-PadD10)*%
X494817400Y539775400D03*
%TO.P,A1,D11*%
%TO.N,Net-(A1-PadD11)*%
X494817400Y537235400D03*
%TO.P,A1,D12*%
%TO.N,N/C*%
X494817400Y534695400D03*
%TO.P,A1,D13*%
X510057400Y534695400D03*
%TO.P,A1,3V3*%
X510057400Y537235400D03*
%TO.P,A1,AREF*%
X510057400Y539775400D03*
%TO.P,A1,A0*%
%TO.N,Net-(A1-PadA0)*%
X510057400Y542315400D03*
%TO.P,A1,A1*%
%TO.N,N/C*%
X510057400Y544855400D03*
%TO.P,A1,A2*%
X510057400Y547395400D03*
%TO.P,A1,A3*%
X510057400Y549935400D03*
%TO.P,A1,A4*%
X510057400Y552475400D03*
%TO.P,A1,A5*%
X510057400Y555015400D03*
%TO.P,A1,A6*%
X510057400Y557555400D03*
%TO.P,A1,A7*%
X510057400Y560095400D03*
%TO.P,A1,5V*%
%TO.N,Net-(A1-Pad5V)*%
X510057400Y562635400D03*
%TO.P,A1,RST2*%
%TO.N,N/C*%
X510057400Y565175400D03*
%TO.P,A1,GND2*%
%TO.N,GND*%
X510057400Y567715400D03*
%TO.P,A1,VIN*%
%TO.N,Net-(A1-PadVIN)*%
X510057400Y570255400D03*
%TD*%
D10*
%TO.P,J2,3*%
%TO.N,Net-(J2-Pad3)*%
X487045000Y586226920D03*
%TO.P,J2,2*%
%TO.N,Net-(J2-Pad2)*%
X487045000Y588766920D03*
D11*
%TO.P,J2,1*%
%TO.N,GND*%
X487045000Y591306920D03*
%TD*%
%TO.P,R1,1*%
%TO.N,Net-(A1-PadD10)*%
%TA.AperFunction,SMDPad,CuDef*%
G36*
G01*
X514863501Y583372920D02*
X513963499Y583372920D01*
G75*
G02*
X513713500Y583622919I0J249999D01*
G01*
X513713500Y584322921D01*
G75*
G02*
X513963499Y584572920I249999J0D01*
G01*
X514863501Y584572920D01*
G75*
G02*
X515113500Y584322921I0J-249999D01*
G01*
X515113500Y583622919D01*
G75*
G02*
X514863501Y583372920I-249999J0D01*
G01*
G37*
%TD.AperFunction*%
%TO.P,R1,2*%
%TO.N,Net-(R1-Pad2)*%
%TA.AperFunction,SMDPad,CuDef*%
G36*
G01*
X514863501Y585372920D02*
X513963499Y585372920D01*
G75*
G02*
X513713500Y585622919I0J249999D01*
G01*
X513713500Y586322921D01*
G75*
G02*
X513963499Y586572920I249999J0D01*
G01*
X514863501Y586572920D01*
G75*
G02*
X515113500Y586322921I0J-249999D01*
G01*
X515113500Y585622919D01*
G75*
G02*
X514863501Y585372920I-249999J0D01*
G01*
G37*
%TD.AperFunction*%
%TD*%
%TO.P,R2,2*%
%TO.N,Net-(R2-Pad2)*%
%TA.AperFunction,SMDPad,CuDef*%
G36*
G01*
X514901601Y580135440D02*
X514001599Y580135440D01*
G75*
G02*
X513751600Y580385439I0J249999D01*
G01*
X513751600Y581085441D01*
G75*
G02*
X514001599Y581335440I249999J0D01*
G01*
X514901601Y581335440D01*
G75*
G02*
X515151600Y581085441I0J-249999D01*
G01*
X515151600Y580385439D01*
G75*
G02*
X514901601Y580135440I-249999J0D01*
G01*
G37*
%TD.AperFunction*%
%TO.P,R2,1*%
%TO.N,Net-(A1-PadD11)*%
%TA.AperFunction,SMDPad,CuDef*%
G36*
G01*
X514901601Y578135440D02*
X514001599Y578135440D01*
G75*
G02*
X513751600Y578385439I0J249999D01*
G01*
X513751600Y579085441D01*
G75*
G02*
X514001599Y579335440I249999J0D01*
G01*
X514901601Y579335440D01*
G75*
G02*
X515151600Y579085441I0J-249999D01*
G01*
X515151600Y578385439D01*
G75*
G02*
X514901601Y578135440I-249999J0D01*
G01*
G37*
%TD.AperFunction*%
%TD*%
D10*
%TO.P,J1,2*%
%TO.N,Net-(J1-Pad2)*%
X487189780Y534692860D03*
D11*
%TO.P,J1,1*%
%TO.N,GND*%
X487189780Y537232860D03*
%TD*%
D10*
%TO.P,J4,4*%
%TO.N,Net-(A1-PadD7)*%
X487205020Y560097940D03*
%TO.P,J4,3*%
%TO.N,Net-(A1-PadD8)*%
X487205020Y557557940D03*
%TO.P,J4,2*%
%TO.N,Net-(A1-PadD9)*%
X487205020Y555017940D03*
D11*
%TO.P,J4,1*%
%TO.N,GND*%
X487205020Y552477940D03*
%TD*%
D10*
%TO.P,J6,3*%
%TO.N,Net-(A1-Pad5V)*%
X487202480Y542315400D03*
%TO.P,J6,2*%
%TO.N,Net-(A1-PadA0)*%
X487202480Y544855400D03*
D11*
%TO.P,J6,1*%
%TO.N,GND*%
X487202480Y547395400D03*
%TD*%
%TO.P,R3,2*%
%TO.N,Net-(A1-PadD5)*%
%TA.AperFunction,SMDPad,CuDef*%
G36*
G01*
X491075559Y565854140D02*
X491975561Y565854140D01*
G75*
G02*
X492225560Y565604141I0J-249999D01*
G01*
X492225560Y564904139D01*
G75*
G02*
X491975561Y564654140I-249999J0D01*
G01*
X491075559Y564654140D01*
G75*
G02*
X490825560Y564904139I0J249999D01*
G01*
X490825560Y565604141D01*
G75*
G02*
X491075559Y565854140I249999J0D01*
G01*
G37*
%TD.AperFunction*%
%TO.P,R3,1*%
%TO.N,Net-(J3-Pad2)*%
%TA.AperFunction,SMDPad,CuDef*%
G36*
G01*
X491075559Y567854140D02*
X491975561Y567854140D01*
G75*
G02*
X492225560Y567604141I0J-249999D01*
G01*
X492225560Y566904139D01*
G75*
G02*
X491975561Y566654140I-249999J0D01*
G01*
X491075559Y566654140D01*
G75*
G02*
X490825560Y566904139I0J249999D01*
G01*
X490825560Y567604141D01*
G75*
G02*
X491075559Y567854140I249999J0D01*
G01*
G37*
%TD.AperFunction*%
%TD*%
%TO.P,R4,1*%
%TO.N,Net-(J5-Pad2)*%
%TA.AperFunction,SMDPad,CuDef*%
G36*
G01*
X515023521Y571366340D02*
X514123519Y571366340D01*
G75*
G02*
X513873520Y571616339I0J249999D01*
G01*
X513873520Y572316341D01*
G75*
G02*
X514123519Y572566340I249999J0D01*
G01*
X515023521Y572566340D01*
G75*
G02*
X515273520Y572316341I0J-249999D01*
G01*
X515273520Y571616339D01*
G75*
G02*
X515023521Y571366340I-249999J0D01*
G01*
G37*
%TD.AperFunction*%
%TO.P,R4,2*%
%TO.N,Net-(A1-PadD3)*%
%TA.AperFunction,SMDPad,CuDef*%
G36*
G01*
X515023521Y573366340D02*
X514123519Y573366340D01*
G75*
G02*
X513873520Y573616339I0J249999D01*
G01*
X513873520Y574316341D01*
G75*
G02*
X514123519Y574566340I249999J0D01*
G01*
X515023521Y574566340D01*
G75*
G02*
X515273520Y574316341I0J-249999D01*
G01*
X515273520Y573616339D01*
G75*
G02*
X515023521Y573366340I-249999J0D01*
G01*
G37*
%TD.AperFunction*%
%TD*%
%TO.P,R5,2*%
%TO.N,Net-(J1-Pad2)*%
%TA.AperFunction,SMDPad,CuDef*%
G36*
G01*
X491751199Y536572000D02*
X492651201Y536572000D01*
G75*
G02*
X492901200Y536322001I0J-249999D01*
G01*
X492901200Y535621999D01*
G75*
G02*
X492651201Y535372000I-249999J0D01*
G01*
X491751199Y535372000D01*
G75*
G02*
X491501200Y535621999I0J249999D01*
G01*
X491501200Y536322001D01*
G75*
G02*
X491751199Y536572000I249999J0D01*
G01*
G37*
%TD.AperFunction*%
%TO.P,R5,1*%
%TO.N,Net-(A1-PadD6)*%
%TA.AperFunction,SMDPad,CuDef*%
G36*
G01*
X491751199Y538572000D02*
X492651201Y538572000D01*
G75*
G02*
X492901200Y538322001I0J-249999D01*
G01*
X492901200Y537621999D01*
G75*
G02*
X492651201Y537372000I-249999J0D01*
G01*
X491751199Y537372000D01*
G75*
G02*
X491501200Y537621999I0J249999D01*
G01*
X491501200Y538322001D01*
G75*
G02*
X491751199Y538572000I249999J0D01*
G01*
G37*
%TD.AperFunction*%
%TD*%
D10*
%TO.P,J7,3*%
%TO.N,Net-(A1-PadVIN)*%
X487045000Y578627240D03*
%TO.P,J7,2*%
%TO.N,Net-(A1-Pad5V)*%
X487045000Y576087240D03*
D11*
%TO.P,J7,1*%
%TO.N,GND*%
X487045000Y573547240D03*
%TD*%
D16*
%TO.N,Net-(A1-Pad5V)*%
X490021880Y572239140D03*
%TO.N,Net-(A1-PadD11)*%
X506476000Y563753000D03*
X506476000Y559511200D03*
%TO.N,Net-(A1-PadD10)*%
X512318000Y576986400D03*
X505180600Y559305460D03*
X505180600Y563775860D03*
X512312920Y582952860D03*
%TO.N,Net-(A1-PadD9)*%
X492734600Y544652200D03*
X490880400Y546506400D03*
%TO.N,Net-(A1-PadD8)*%
X490880400Y548487600D03*
X492683800Y546684200D03*
%TO.N,Net-(A1-PadD7)*%
X492760000Y548259000D03*
X491159800Y549859200D03*
%TO.N,Net-(A1-PadD3)*%
X513890260Y575602100D03*
X506244860Y575602100D03*
X503196860Y563961280D03*
X500654320Y561418740D03*
%TO.N,Net-(A1-PadA0)*%
X507415800Y531952200D03*
X490220000Y536194000D03*
X491871000Y530225000D03*
X490220000Y533095200D03*
%TO.N,Net-(A1-PadD2)*%
X503186700Y577430900D03*
X501040400Y563956200D03*
X497662200Y560578000D03*
X500885460Y578612000D03*
X497583460Y578612000D03*
%TD*%
D17*
%TO.N,Net-(A1-PadVIN)*%
X510102000Y570300000D02*
X510032000Y570230000D01*
D18*
%TO.N,Net-(A1-Pad5V)*%
X496824000Y574522600D02*
X497433600Y575132200D01*
X496824000Y564007000D02*
X496824000Y574522600D01*
X498221000Y562610000D02*
X496824000Y564007000D01*
X510032000Y562610000D02*
X498221000Y562610000D01*
X499160800Y575132200D02*
X497433600Y575132200D01*
X502640600Y578612000D02*
X499160800Y575132200D01*
X509905000Y578612000D02*
X502640600Y578612000D01*
X488038140Y576087240D02*
X487045000Y576087240D01*
X496824000Y574522600D02*
X496552220Y574522600D01*
X496552220Y574522600D02*
X496059460Y575015360D01*
X489110020Y575015360D02*
X488038140Y576087240D01*
X496059460Y575015360D02*
X489110020Y575015360D01*
X490021880Y574103500D02*
X489110020Y575015360D01*
X490021880Y572239140D02*
X490021880Y574103500D01*
%TO.N,Net-(A1-PadD11)*%
X494732000Y537270000D02*
X494792000Y537210000D01*
D19*
X498119400Y537210000D02*
X494792000Y537210000D01*
X506476000Y545566600D02*
X498119400Y537210000D01*
X506476000Y559511200D02*
X506476000Y545566600D01*
X514451600Y577733160D02*
X514451600Y578735440D01*
X512155440Y575437000D02*
X514451600Y577733160D01*
X508868680Y575437000D02*
X512155440Y575437000D01*
X507776480Y574344800D02*
X508868680Y575437000D01*
X507776480Y565053480D02*
X507776480Y574344800D01*
X506476000Y563753000D02*
X507776480Y565053480D01*
D18*
%TO.N,Net-(A1-PadD10)*%
X494732000Y539810000D02*
X494792000Y539750000D01*
D19*
X497840000Y539750000D02*
X494792000Y539750000D01*
X505180600Y547090600D02*
X497840000Y539750000D01*
X505180600Y559305460D02*
X505180600Y547090600D01*
X506450600Y565045860D02*
X505180600Y563775860D01*
X511683000Y576351400D02*
X508381000Y576351400D01*
X506450600Y574421000D02*
X506450600Y565045860D01*
X508381000Y576351400D02*
X506450600Y574421000D01*
X512318000Y576986400D02*
X511683000Y576351400D01*
X514413500Y583972920D02*
X513332980Y583972920D01*
X513332980Y583972920D02*
X512312920Y582952860D01*
D18*
%TO.N,Net-(A1-PadD9)*%
X494582000Y542500000D02*
X494792000Y542290000D01*
D19*
X494792000Y542290000D02*
X494792000Y542594800D01*
X494792000Y542594800D02*
X492734600Y544652200D01*
X489127800Y548259000D02*
X490880400Y546506400D01*
X489127800Y554151800D02*
X489127800Y548259000D01*
X488289600Y554990000D02*
X489127800Y554151800D01*
X487232960Y554990000D02*
X487205020Y555017940D01*
X488289600Y554990000D02*
X487232960Y554990000D01*
D18*
%TO.N,Net-(A1-PadD8)*%
X494602000Y544640000D02*
X494792000Y544830000D01*
D19*
X494538000Y544830000D02*
X494792000Y544830000D01*
X492683800Y546684200D02*
X494538000Y544830000D01*
X487232960Y557530000D02*
X487205020Y557557940D01*
X490093000Y556260000D02*
X488823000Y557530000D01*
X490093000Y549275000D02*
X490093000Y556260000D01*
X488823000Y557530000D02*
X487232960Y557530000D01*
X490880400Y548487600D02*
X490093000Y549275000D01*
%TO.N,Net-(A1-PadD7)*%
X494792000Y547370000D02*
X493649000Y547370000D01*
X493649000Y547370000D02*
X492760000Y548259000D01*
X491159800Y549859200D02*
X491159800Y556742600D01*
X487804460Y560097940D02*
X491159800Y556742600D01*
X487205020Y560097940D02*
X487804460Y560097940D01*
D18*
%TO.N,Net-(A1-PadD6)*%
X494538000Y549656000D02*
X494792000Y549910000D01*
D19*
X492201200Y538708600D02*
X492201200Y537972000D01*
X491780401Y539129399D02*
X492201200Y538708600D01*
X491780401Y549133601D02*
X491780401Y539129399D01*
X492556800Y549910000D02*
X491780401Y549133601D01*
X494792000Y549910000D02*
X492556800Y549910000D01*
D18*
%TO.N,Net-(A1-PadD5)*%
X494792000Y552749870D02*
X494792000Y552450000D01*
X494538000Y552196000D02*
X494792000Y552450000D01*
D19*
X492353600Y553110400D02*
X492353600Y557377600D01*
X491805009Y557926191D02*
X491805009Y560765911D01*
X493014000Y552450000D02*
X492353600Y553110400D01*
X492353600Y557377600D02*
X491805009Y557926191D01*
X494792000Y552450000D02*
X493014000Y552450000D01*
X491525560Y561045360D02*
X491805009Y560765911D01*
X491525560Y565254140D02*
X491525560Y561045360D01*
D18*
%TO.N,Net-(A1-PadD3)*%
X494776000Y557546000D02*
X494792000Y557530000D01*
D19*
X514573520Y575320160D02*
X514291580Y575602100D01*
X514291580Y575602100D02*
X513890260Y575602100D01*
X506244860Y575602100D02*
X504604020Y573961260D01*
X504604020Y573961260D02*
X504604020Y565368440D01*
X504604020Y565368440D02*
X503196860Y563961280D01*
X514573520Y575320160D02*
X514573520Y573966340D01*
X496765580Y557530000D02*
X500654320Y561418740D01*
X494792000Y557530000D02*
X496765580Y557530000D01*
%TO.N,Net-(J2-Pad2)*%
X490321600Y578104000D02*
X490321600Y585520800D01*
X491236000Y577189600D02*
X490321600Y578104000D01*
X492683800Y577189600D02*
X491236000Y577189600D01*
X503123200Y587629000D02*
X492683800Y577189600D01*
X503123200Y589610200D02*
X503123200Y587629000D01*
X509905000Y596392000D02*
X503123200Y589610200D01*
X490291120Y585520800D02*
X487045000Y588766920D01*
X490321600Y585520800D02*
X490291120Y585520800D01*
%TO.N,Net-(J2-Pad3)*%
X488177840Y586226920D02*
X487045000Y586226920D01*
X489305600Y585099160D02*
X488177840Y586226920D01*
X490778800Y576275200D02*
X489305600Y577748400D01*
X489305600Y577748400D02*
X489305600Y585099160D01*
X493090200Y576275200D02*
X490778800Y576275200D01*
X508127000Y591312000D02*
X493090200Y576275200D01*
X509905000Y591312000D02*
X508127000Y591312000D01*
%TO.N,Net-(R2-Pad2)*%
X514451600Y580735440D02*
X514451600Y580776080D01*
X514075680Y581152000D02*
X509905000Y581152000D01*
X514451600Y580776080D02*
X514075680Y581152000D01*
%TO.N,Net-(R1-Pad2)*%
X514413500Y585972920D02*
X513433060Y585972920D01*
X513433060Y585972920D02*
X512333240Y584873100D01*
X512333240Y584873100D02*
X512333240Y584852780D01*
X511172460Y583692000D02*
X509905000Y583692000D01*
X512333240Y584852780D02*
X511172460Y583692000D01*
%TO.N,Net-(A1-PadA0)*%
X510032000Y542290000D02*
X509244600Y542290000D01*
X509244600Y542290000D02*
X508254000Y541299400D01*
X508254000Y541299400D02*
X508254000Y532790400D01*
X508254000Y532790400D02*
X507415800Y531952200D01*
X488416600Y544830000D02*
X490220000Y543026600D01*
X490220000Y543026600D02*
X490220000Y536194000D01*
X491871000Y530225000D02*
X490982000Y530225000D01*
X490982000Y530225000D02*
X490220000Y530987000D01*
X490220000Y530987000D02*
X490220000Y533095200D01*
X487227880Y544830000D02*
X487202480Y544855400D01*
X488416600Y544830000D02*
X487227880Y544830000D01*
%TO.N,Net-(J1-Pad2)*%
X490899200Y534670000D02*
X492201200Y535972000D01*
X487212640Y534670000D02*
X487189780Y534692860D01*
X490899200Y534670000D02*
X487212640Y534670000D01*
%TO.N,Net-(J3-Pad2)*%
X491069380Y567710320D02*
X491525560Y567254140D01*
X487205020Y567710320D02*
X491069380Y567710320D01*
D20*
%TO.N,Net-(A1-PadD2)*%
X503186700Y577430900D02*
X503186700Y566102500D01*
X503186700Y566102500D02*
X501040400Y563956200D01*
X497154200Y560070000D02*
X494792000Y560070000D01*
X497662200Y560578000D02*
X497154200Y560070000D01*
X500885460Y578612000D02*
X497583460Y578612000D01*
D19*
%TO.N,Net-(J5-Pad2)*%
X514573520Y571966340D02*
X514584700Y571966340D01*
X514584700Y571966340D02*
X514776720Y571774320D01*
X514682740Y571857120D02*
X514573520Y571966340D01*
X514573520Y571966340D02*
X514573520Y571195200D01*
X515147560Y570621160D02*
X515147560Y567730640D01*
X514573520Y571195200D02*
X515147560Y570621160D01*
%TD*%
D21*
%TO.N,GND*%
X516507260Y568328524D02*
X516463550Y568434051D01*
X516301035Y568677272D01*
X516094192Y568884115D01*
X516082560Y568891887D01*
X516082560Y570575229D01*
X516087084Y570621161D01*
X516069031Y570804453D01*
X516046740Y570877935D01*
X516015567Y570980700D01*
X515928746Y571143132D01*
X515834254Y571258271D01*
X515843992Y571276489D01*
X515894528Y571443085D01*
X515911592Y571616339D01*
X515911592Y572316341D01*
X515894528Y572489595D01*
X515843992Y572656191D01*
X515761925Y572809727D01*
X515651482Y572944302D01*
X515624629Y572966340D01*
X515651482Y572988378D01*
X515761925Y573122953D01*
X515843992Y573276489D01*
X515894528Y573443085D01*
X515911592Y573616339D01*
X515911592Y574316341D01*
X515894528Y574489595D01*
X515843992Y574656191D01*
X515761925Y574809727D01*
X515651482Y574944302D01*
X515516907Y575054745D01*
X515508520Y575059228D01*
X515508520Y575274229D01*
X515513044Y575320161D01*
X515494991Y575503453D01*
X515471292Y575581577D01*
X515441527Y575679700D01*
X515354706Y575842132D01*
X515237864Y575984504D01*
X515202180Y576013789D01*
X514985210Y576230759D01*
X514955924Y576266444D01*
X514813552Y576383286D01*
X514651120Y576470107D01*
X514543486Y576502757D01*
X515080260Y577039531D01*
X515115944Y577068816D01*
X515232786Y577211188D01*
X515292451Y577322814D01*
X515319607Y577373619D01*
X515373072Y577549868D01*
X515381956Y577640070D01*
X515394987Y577647035D01*
X515529562Y577757478D01*
X515640005Y577892053D01*
X515722072Y578045589D01*
X515772608Y578212185D01*
X515789672Y578385439D01*
X515789672Y579085441D01*
X515772608Y579258695D01*
X515722072Y579425291D01*
X515640005Y579578827D01*
X515529562Y579713402D01*
X515502709Y579735440D01*
X515529562Y579757478D01*
X515640005Y579892053D01*
X515722072Y580045589D01*
X515772608Y580212185D01*
X515789672Y580385439D01*
X515789672Y581085441D01*
X515772608Y581258695D01*
X515722072Y581425291D01*
X515640005Y581578827D01*
X515529562Y581713402D01*
X515394987Y581823845D01*
X515241451Y581905912D01*
X515074855Y581956448D01*
X514901601Y581973512D01*
X514522207Y581973512D01*
X514435220Y582020007D01*
X514258972Y582073471D01*
X514121612Y582087000D01*
X514075680Y582091524D01*
X514029748Y582087000D01*
X512880019Y582087000D01*
X512972694Y582148923D01*
X513116857Y582293086D01*
X513230125Y582462604D01*
X513290351Y582608002D01*
X513533163Y582850814D01*
X513623649Y582802448D01*
X513790245Y582751912D01*
X513963499Y582734848D01*
X514863501Y582734848D01*
X515036755Y582751912D01*
X515203351Y582802448D01*
X515356887Y582884515D01*
X515491462Y582994958D01*
X515601905Y583129533D01*
X515683972Y583283069D01*
X515734508Y583449665D01*
X515751572Y583622919D01*
X515751572Y584322921D01*
X515734508Y584496175D01*
X515683972Y584662771D01*
X515601905Y584816307D01*
X515491462Y584950882D01*
X515464609Y584972920D01*
X515491462Y584994958D01*
X515601905Y585129533D01*
X515683972Y585283069D01*
X515734508Y585449665D01*
X515751572Y585622919D01*
X515751572Y586322921D01*
X515734508Y586496175D01*
X515683972Y586662771D01*
X515601905Y586816307D01*
X515491462Y586950882D01*
X515356887Y587061325D01*
X515203351Y587143392D01*
X515036755Y587193928D01*
X514863501Y587210992D01*
X513963499Y587210992D01*
X513790245Y587193928D01*
X513623649Y587143392D01*
X513470113Y587061325D01*
X513335538Y586950882D01*
X513292643Y586898614D01*
X513249767Y586894391D01*
X513239456Y586891263D01*
X513073520Y586840927D01*
X512911088Y586754106D01*
X512768716Y586637264D01*
X512739434Y586601584D01*
X511704583Y585566732D01*
X511668896Y585537444D01*
X511552054Y585395071D01*
X511550690Y585392519D01*
X510803896Y584645725D01*
X510740077Y584709544D01*
X510525518Y584852907D01*
X510287113Y584951658D01*
X510235120Y584962000D01*
X510287113Y584972342D01*
X510525518Y585071093D01*
X510740077Y585214456D01*
X510922544Y585396923D01*
X511065907Y585611482D01*
X511164658Y585849887D01*
X511215000Y586102976D01*
X511215000Y586361024D01*
X511164658Y586614113D01*
X511065907Y586852518D01*
X510922544Y587067077D01*
X510740077Y587249544D01*
X510525518Y587392907D01*
X510287113Y587491658D01*
X510235120Y587502000D01*
X510287113Y587512342D01*
X510525518Y587611093D01*
X510740077Y587754456D01*
X510922544Y587936923D01*
X511065907Y588151482D01*
X511164658Y588389887D01*
X511215000Y588642976D01*
X511215000Y588901024D01*
X511164658Y589154113D01*
X511065907Y589392518D01*
X510922544Y589607077D01*
X510740077Y589789544D01*
X510525518Y589932907D01*
X510287113Y590031658D01*
X510235120Y590042000D01*
X510287113Y590052342D01*
X510525518Y590151093D01*
X510740077Y590294456D01*
X510922544Y590476923D01*
X511065907Y590691482D01*
X511164658Y590929887D01*
X511215000Y591182976D01*
X511215000Y591441024D01*
X511164658Y591694113D01*
X511065907Y591932518D01*
X510922544Y592147077D01*
X510740077Y592329544D01*
X510525518Y592472907D01*
X510287113Y592571658D01*
X510242720Y592580488D01*
X510477633Y592666741D01*
X510572370Y592717379D01*
X510628795Y592948600D01*
X509905000Y593672395D01*
X509181205Y592948600D01*
X509237630Y592717379D01*
X509471808Y592608983D01*
X509579576Y592582934D01*
X509522887Y592571658D01*
X509284482Y592472907D01*
X509069923Y592329544D01*
X508987379Y592247000D01*
X508172924Y592247000D01*
X508126999Y592251523D01*
X508081074Y592247000D01*
X508081068Y592247000D01*
X507962110Y592235283D01*
X507943707Y592233471D01*
X507890243Y592217253D01*
X507767460Y592180007D01*
X507605028Y592093186D01*
X507462656Y591976344D01*
X507433375Y591940665D01*
X504058200Y588565490D01*
X504058200Y589222911D01*
X508593672Y593758383D01*
X508630800Y593521602D01*
X508719741Y593279367D01*
X508770379Y593184630D01*
X509001600Y593128205D01*
X509725395Y593852000D01*
X510084605Y593852000D01*
X510808400Y593128205D01*
X511039621Y593184630D01*
X511148017Y593418808D01*
X511208645Y593669633D01*
X511219174Y593927465D01*
X511179200Y594182398D01*
X511090259Y594424633D01*
X511039621Y594519370D01*
X510808400Y594575795D01*
X510084605Y593852000D01*
X509725395Y593852000D01*
X509711253Y593866143D01*
X509890858Y594045748D01*
X509905000Y594031605D01*
X510628795Y594755400D01*
X510572370Y594986621D01*
X510338192Y595095017D01*
X510230424Y595121066D01*
X510287113Y595132342D01*
X510525518Y595231093D01*
X510740077Y595374456D01*
X510922544Y595556923D01*
X511065907Y595771482D01*
X511164658Y596009887D01*
X511168112Y596027253D01*
X512656580Y596027253D01*
X512656580Y595705187D01*
X512719412Y595389308D01*
X512842662Y595091757D01*
X513021593Y594823968D01*
X513249328Y594596233D01*
X513517117Y594417302D01*
X513814668Y594294052D01*
X514130547Y594231220D01*
X514452613Y594231220D01*
X514768492Y594294052D01*
X515066043Y594417302D01*
X515333832Y594596233D01*
X515561567Y594823968D01*
X515740498Y595091757D01*
X515863748Y595389308D01*
X515926580Y595705187D01*
X515926580Y596027253D01*
X515863748Y596343132D01*
X515740498Y596640683D01*
X515561567Y596908472D01*
X515333832Y597136207D01*
X515066043Y597315138D01*
X514768492Y597438388D01*
X514452613Y597501220D01*
X514130547Y597501220D01*
X513814668Y597438388D01*
X513517117Y597315138D01*
X513249328Y597136207D01*
X513021593Y596908472D01*
X512842662Y596640683D01*
X512719412Y596343132D01*
X512656580Y596027253D01*
X511168112Y596027253D01*
X511215000Y596262976D01*
X511215000Y596521024D01*
X511164658Y596774113D01*
X511065907Y597012518D01*
X510922544Y597227077D01*
X510740077Y597409544D01*
X510525518Y597552907D01*
X510287113Y597651658D01*
X510034024Y597702000D01*
X509775976Y597702000D01*
X509522887Y597651658D01*
X509284482Y597552907D01*
X509069923Y597409544D01*
X508887456Y597227077D01*
X508744093Y597012518D01*
X508645342Y596774113D01*
X508595000Y596521024D01*
X508595000Y596404289D01*
X502494541Y590303830D01*
X502458856Y590274544D01*
X502342014Y590132171D01*
X502255193Y589969739D01*
X502213140Y589831108D01*
X502201729Y589793491D01*
X502183676Y589610200D01*
X502188200Y589564268D01*
X502188201Y588016291D01*
X493320621Y579148710D01*
X493285907Y579232518D01*
X493142544Y579447077D01*
X492960077Y579629544D01*
X492745518Y579772907D01*
X492507113Y579871658D01*
X492455120Y579882000D01*
X492507113Y579892342D01*
X492745518Y579991093D01*
X492960077Y580134456D01*
X493142544Y580316923D01*
X493285907Y580531482D01*
X493384658Y580769887D01*
X493435000Y581022976D01*
X493435000Y581281024D01*
X493384658Y581534113D01*
X493285907Y581772518D01*
X493142544Y581987077D01*
X492960077Y582169544D01*
X492745518Y582312907D01*
X492507113Y582411658D01*
X492455120Y582422000D01*
X492507113Y582432342D01*
X492745518Y582531093D01*
X492960077Y582674456D01*
X493142544Y582856923D01*
X493285907Y583071482D01*
X493384658Y583309887D01*
X493435000Y583562976D01*
X493435000Y583821024D01*
X493384658Y584074113D01*
X493285907Y584312518D01*
X493142544Y584527077D01*
X492960077Y584709544D01*
X492745518Y584852907D01*
X492507113Y584951658D01*
X492455120Y584962000D01*
X492507113Y584972342D01*
X492745518Y585071093D01*
X492960077Y585214456D01*
X493142544Y585396923D01*
X493285907Y585611482D01*
X493384658Y585849887D01*
X493435000Y586102976D01*
X493435000Y586361024D01*
X493384658Y586614113D01*
X493285907Y586852518D01*
X493142544Y587067077D01*
X492960077Y587249544D01*
X492745518Y587392907D01*
X492507113Y587491658D01*
X492455120Y587502000D01*
X492507113Y587512342D01*
X492745518Y587611093D01*
X492960077Y587754456D01*
X493142544Y587936923D01*
X493285907Y588151482D01*
X493384658Y588389887D01*
X493435000Y588642976D01*
X493435000Y588901024D01*
X493384658Y589154113D01*
X493285907Y589392518D01*
X493142544Y589607077D01*
X492960077Y589789544D01*
X492745518Y589932907D01*
X492507113Y590031658D01*
X492455120Y590042000D01*
X492507113Y590052342D01*
X492745518Y590151093D01*
X492960077Y590294456D01*
X493142544Y590476923D01*
X493285907Y590691482D01*
X493384658Y590929887D01*
X493435000Y591182976D01*
X493435000Y591441024D01*
X493384658Y591694113D01*
X493285907Y591932518D01*
X493142544Y592147077D01*
X492960077Y592329544D01*
X492745518Y592472907D01*
X492507113Y592571658D01*
X492455120Y592582000D01*
X492507113Y592592342D01*
X492745518Y592691093D01*
X492960077Y592834456D01*
X493142544Y593016923D01*
X493285907Y593231482D01*
X493384658Y593469887D01*
X493435000Y593722976D01*
X493435000Y593981024D01*
X493384658Y594234113D01*
X493285907Y594472518D01*
X493142544Y594687077D01*
X492960077Y594869544D01*
X492745518Y595012907D01*
X492507113Y595111658D01*
X492455120Y595122000D01*
X492507113Y595132342D01*
X492745518Y595231093D01*
X492960077Y595374456D01*
X493142544Y595556923D01*
X493285907Y595771482D01*
X493384658Y596009887D01*
X493435000Y596262976D01*
X493435000Y596521024D01*
X493384658Y596774113D01*
X493285907Y597012518D01*
X493142544Y597227077D01*
X492960077Y597409544D01*
X492745518Y597552907D01*
X492507113Y597651658D01*
X492254024Y597702000D01*
X491995976Y597702000D01*
X491742887Y597651658D01*
X491504482Y597552907D01*
X491289923Y597409544D01*
X491107456Y597227077D01*
X490964093Y597012518D01*
X490865342Y596774113D01*
X490815000Y596521024D01*
X490815000Y596262976D01*
X490865342Y596009887D01*
X490964093Y595771482D01*
X491107456Y595556923D01*
X491289923Y595374456D01*
X491504482Y595231093D01*
X491742887Y595132342D01*
X491794880Y595122000D01*
X491742887Y595111658D01*
X491504482Y595012907D01*
X491289923Y594869544D01*
X491107456Y594687077D01*
X490964093Y594472518D01*
X490865342Y594234113D01*
X490815000Y593981024D01*
X490815000Y593722976D01*
X490865342Y593469887D01*
X490964093Y593231482D01*
X491107456Y593016923D01*
X491289923Y592834456D01*
X491504482Y592691093D01*
X491742887Y592592342D01*
X491794880Y592582000D01*
X491742887Y592571658D01*
X491504482Y592472907D01*
X491289923Y592329544D01*
X491107456Y592147077D01*
X490964093Y591932518D01*
X490865342Y591694113D01*
X490815000Y591441024D01*
X490815000Y591182976D01*
X490865342Y590929887D01*
X490964093Y590691482D01*
X491107456Y590476923D01*
X491289923Y590294456D01*
X491504482Y590151093D01*
X491742887Y590052342D01*
X491794880Y590042000D01*
X491742887Y590031658D01*
X491504482Y589932907D01*
X491289923Y589789544D01*
X491107456Y589607077D01*
X490964093Y589392518D01*
X490865342Y589154113D01*
X490815000Y588901024D01*
X490815000Y588642976D01*
X490865342Y588389887D01*
X490964093Y588151482D01*
X491107456Y587936923D01*
X491289923Y587754456D01*
X491504482Y587611093D01*
X491742887Y587512342D01*
X491794880Y587502000D01*
X491742887Y587491658D01*
X491504482Y587392907D01*
X491289923Y587249544D01*
X491107456Y587067077D01*
X490964093Y586852518D01*
X490865342Y586614113D01*
X490815000Y586361024D01*
X490815000Y586319209D01*
X488527271Y588606938D01*
X488530000Y588620660D01*
X488530000Y588913180D01*
X488472932Y589200078D01*
X488360990Y589470331D01*
X488198475Y589713552D01*
X488066620Y589845407D01*
X488139180Y589867418D01*
X488249494Y589926383D01*
X488346185Y590005735D01*
X488425537Y590102426D01*
X488484502Y590212740D01*
X488520812Y590332438D01*
X488533072Y590456920D01*
X488530000Y591021170D01*
X488371250Y591179920D01*
X487172000Y591179920D01*
X487172000Y591159920D01*
X486918000Y591159920D01*
X486918000Y591179920D01*
X485718750Y591179920D01*
X485560000Y591021170D01*
X485556928Y590456920D01*
X485569188Y590332438D01*
X485605498Y590212740D01*
X485664463Y590102426D01*
X485743815Y590005735D01*
X485840506Y589926383D01*
X485950820Y589867418D01*
X486023380Y589845407D01*
X485891525Y589713552D01*
X485729010Y589470331D01*
X485617068Y589200078D01*
X485560000Y588913180D01*
X485560000Y588620660D01*
X485617068Y588333762D01*
X485729010Y588063509D01*
X485891525Y587820288D01*
X486098368Y587613445D01*
X486272760Y587496920D01*
X486098368Y587380395D01*
X485891525Y587173552D01*
X485729010Y586930331D01*
X485617068Y586660078D01*
X485560000Y586373180D01*
X485560000Y586080660D01*
X485617068Y585793762D01*
X485729010Y585523509D01*
X485891525Y585280288D01*
X486098368Y585073445D01*
X486341589Y584910930D01*
X486611842Y584798988D01*
X486898740Y584741920D01*
X487191260Y584741920D01*
X487478158Y584798988D01*
X487748411Y584910930D01*
X487991632Y585073445D01*
X488000329Y585082142D01*
X488370601Y584711869D01*
X488370600Y579307450D01*
X488360990Y579330651D01*
X488198475Y579573872D01*
X487991632Y579780715D01*
X487748411Y579943230D01*
X487478158Y580055172D01*
X487191260Y580112240D01*
X486898740Y580112240D01*
X486611842Y580055172D01*
X486341589Y579943230D01*
X486098368Y579780715D01*
X485891525Y579573872D01*
X485729010Y579330651D01*
X485617068Y579060398D01*
X485560000Y578773500D01*
X485560000Y578480980D01*
X485617068Y578194082D01*
X485729010Y577923829D01*
X485891525Y577680608D01*
X486098368Y577473765D01*
X486272760Y577357240D01*
X486098368Y577240715D01*
X485891525Y577033872D01*
X485729010Y576790651D01*
X485617068Y576520398D01*
X485560000Y576233500D01*
X485560000Y575940980D01*
X485617068Y575654082D01*
X485729010Y575383829D01*
X485891525Y575140608D01*
X486023380Y575008753D01*
X485950820Y574986742D01*
X485840506Y574927777D01*
X485743815Y574848425D01*
X485664463Y574751734D01*
X485605498Y574641420D01*
X485569188Y574521722D01*
X485556928Y574397240D01*
X485560000Y573832990D01*
X485718750Y573674240D01*
X486918000Y573674240D01*
X486918000Y573694240D01*
X487172000Y573694240D01*
X487172000Y573674240D01*
X488371250Y573674240D01*
X488530000Y573832990D01*
X488531234Y574059724D01*
X488936881Y573654078D01*
X488936880Y572185847D01*
X488952580Y572026444D01*
X489014621Y571821921D01*
X489115371Y571633430D01*
X489250958Y571468218D01*
X489416170Y571332631D01*
X489604660Y571231881D01*
X489809183Y571169840D01*
X490021880Y571148891D01*
X490234576Y571169840D01*
X490439099Y571231881D01*
X490627590Y571332631D01*
X490792802Y571468218D01*
X490928389Y571633430D01*
X491029139Y571821920D01*
X491091180Y572026443D01*
X491106880Y572185846D01*
X491106880Y573930360D01*
X493746187Y573930360D01*
X493605669Y573789842D01*
X493434946Y573534337D01*
X493317350Y573250435D01*
X493257400Y572949047D01*
X493257400Y572641753D01*
X493317350Y572340365D01*
X493434946Y572056463D01*
X493605669Y571800958D01*
X493702129Y571704498D01*
X493599306Y571649537D01*
X493502615Y571570185D01*
X493423263Y571473494D01*
X493364298Y571363180D01*
X493327988Y571243482D01*
X493315728Y571119000D01*
X493315728Y569391800D01*
X493327988Y569267318D01*
X493364298Y569147620D01*
X493423263Y569037306D01*
X493502615Y568940615D01*
X493599306Y568861263D01*
X493709620Y568802298D01*
X493767423Y568784764D01*
X493653361Y568670702D01*
X493489358Y568425253D01*
X493376390Y568152525D01*
X493318800Y567862999D01*
X493318800Y567567801D01*
X493376390Y567278275D01*
X493489358Y567005547D01*
X493653361Y566760098D01*
X493862098Y566551361D01*
X494020681Y566445400D01*
X493862098Y566339439D01*
X493653361Y566130702D01*
X493489358Y565885253D01*
X493376390Y565612525D01*
X493318800Y565322999D01*
X493318800Y565027801D01*
X493376390Y564738275D01*
X493489358Y564465547D01*
X493653361Y564220098D01*
X493862098Y564011361D01*
X494020681Y563905400D01*
X493862098Y563799439D01*
X493653361Y563590702D01*
X493489358Y563345253D01*
X493376390Y563072525D01*
X493318800Y562782999D01*
X493318800Y562487801D01*
X493376390Y562198275D01*
X493489358Y561925547D01*
X493653361Y561680098D01*
X493862098Y561471361D01*
X494020681Y561365400D01*
X493862098Y561259439D01*
X493653361Y561050702D01*
X493489358Y560805253D01*
X493376390Y560532525D01*
X493318800Y560242999D01*
X493318800Y559947801D01*
X493376390Y559658275D01*
X493489358Y559385547D01*
X493653361Y559140098D01*
X493862098Y558931361D01*
X494020681Y558825400D01*
X493862098Y558719439D01*
X493653361Y558510702D01*
X493489358Y558265253D01*
X493376390Y557992525D01*
X493318800Y557702999D01*
X493318800Y557407801D01*
X493376390Y557118275D01*
X493489358Y556845547D01*
X493653361Y556600098D01*
X493862098Y556391361D01*
X494020681Y556285400D01*
X493862098Y556179439D01*
X493653361Y555970702D01*
X493489358Y555725253D01*
X493376390Y555452525D01*
X493318800Y555162999D01*
X493318800Y554867801D01*
X493376390Y554578275D01*
X493489358Y554305547D01*
X493653361Y554060098D01*
X493862098Y553851361D01*
X494020681Y553745400D01*
X493862098Y553639439D01*
X493653361Y553430702D01*
X493622824Y553385000D01*
X493401289Y553385000D01*
X493288600Y553497689D01*
X493288600Y557331668D01*
X493293124Y557377600D01*
X493275071Y557560892D01*
X493243772Y557664071D01*
X493221607Y557737140D01*
X493134786Y557899572D01*
X493017944Y558041944D01*
X492982254Y558071234D01*
X492740009Y558313480D01*
X492740009Y560719976D01*
X492744533Y560765911D01*
X492726481Y560949203D01*
X492673016Y561125451D01*
X492666950Y561136800D01*
X492586195Y561287883D01*
X492469353Y561430255D01*
X492460560Y561437471D01*
X492460560Y564161252D01*
X492468947Y564165735D01*
X492603522Y564276178D01*
X492713965Y564410753D01*
X492796032Y564564289D01*
X492846568Y564730885D01*
X492863632Y564904139D01*
X492863632Y565604141D01*
X492846568Y565777395D01*
X492796032Y565943991D01*
X492713965Y566097527D01*
X492603522Y566232102D01*
X492576669Y566254140D01*
X492603522Y566276178D01*
X492713965Y566410753D01*
X492796032Y566564289D01*
X492846568Y566730885D01*
X492863632Y566904139D01*
X492863632Y567604141D01*
X492846568Y567777395D01*
X492796032Y567943991D01*
X492713965Y568097527D01*
X492603522Y568232102D01*
X492468947Y568342545D01*
X492315411Y568424612D01*
X492148815Y568475148D01*
X491975561Y568492212D01*
X491590031Y568492212D01*
X491428920Y568578327D01*
X491252672Y568631791D01*
X491115312Y568645320D01*
X491069380Y568649844D01*
X491023448Y568645320D01*
X488366267Y568645320D01*
X488358495Y568656952D01*
X488151652Y568863795D01*
X487908431Y569026310D01*
X487638178Y569138252D01*
X487351280Y569195320D01*
X487058760Y569195320D01*
X486771862Y569138252D01*
X486501609Y569026310D01*
X486258388Y568863795D01*
X486051545Y568656952D01*
X485889030Y568413731D01*
X485777088Y568143478D01*
X485720020Y567856580D01*
X485720020Y567564060D01*
X485777088Y567277162D01*
X485889030Y567006909D01*
X486051545Y566763688D01*
X486183400Y566631833D01*
X486110840Y566609822D01*
X486000526Y566550857D01*
X485903835Y566471505D01*
X485824483Y566374814D01*
X485765518Y566264500D01*
X485729208Y566144802D01*
X485716948Y566020320D01*
X485720020Y565456070D01*
X485878770Y565297320D01*
X487078020Y565297320D01*
X487078020Y565317320D01*
X487332020Y565317320D01*
X487332020Y565297320D01*
X488531270Y565297320D01*
X488690020Y565456070D01*
X488693092Y566020320D01*
X488680832Y566144802D01*
X488644522Y566264500D01*
X488585557Y566374814D01*
X488506205Y566471505D01*
X488409514Y566550857D01*
X488299200Y566609822D01*
X488226640Y566631833D01*
X488358495Y566763688D01*
X488366267Y566775320D01*
X490200176Y566775320D01*
X490204552Y566730885D01*
X490255088Y566564289D01*
X490337155Y566410753D01*
X490447598Y566276178D01*
X490474451Y566254140D01*
X490447598Y566232102D01*
X490337155Y566097527D01*
X490255088Y565943991D01*
X490204552Y565777395D01*
X490187488Y565604141D01*
X490187488Y564904139D01*
X490204552Y564730885D01*
X490255088Y564564289D01*
X490337155Y564410753D01*
X490447598Y564276178D01*
X490582173Y564165735D01*
X490590560Y564161252D01*
X490590561Y561091302D01*
X490586036Y561045360D01*
X490604089Y560862069D01*
X490653611Y560698817D01*
X490657554Y560685820D01*
X490744375Y560523388D01*
X490861217Y560381016D01*
X490870010Y560373800D01*
X490870009Y558354681D01*
X488590074Y560634615D01*
X488521010Y560801351D01*
X488358495Y561044572D01*
X488151652Y561251415D01*
X487908431Y561413930D01*
X487638178Y561525872D01*
X487351280Y561582940D01*
X487058760Y561582940D01*
X486771862Y561525872D01*
X486501609Y561413930D01*
X486258388Y561251415D01*
X486051545Y561044572D01*
X485889030Y560801351D01*
X485777088Y560531098D01*
X485720020Y560244200D01*
X485720020Y559951680D01*
X485777088Y559664782D01*
X485889030Y559394529D01*
X486051545Y559151308D01*
X486258388Y558944465D01*
X486432780Y558827940D01*
X486258388Y558711415D01*
X486051545Y558504572D01*
X485889030Y558261351D01*
X485777088Y557991098D01*
X485720020Y557704200D01*
X485720020Y557411680D01*
X485777088Y557124782D01*
X485889030Y556854529D01*
X486051545Y556611308D01*
X486258388Y556404465D01*
X486432780Y556287940D01*
X486258388Y556171415D01*
X486051545Y555964572D01*
X485889030Y555721351D01*
X485777088Y555451098D01*
X485720020Y555164200D01*
X485720020Y554871680D01*
X485777088Y554584782D01*
X485889030Y554314529D01*
X486051545Y554071308D01*
X486183400Y553939453D01*
X486110840Y553917442D01*
X486000526Y553858477D01*
X485903835Y553779125D01*
X485824483Y553682434D01*
X485765518Y553572120D01*
X485729208Y553452422D01*
X485716948Y553327940D01*
X485720020Y552763690D01*
X485878770Y552604940D01*
X487078020Y552604940D01*
X487078020Y552624940D01*
X487332020Y552624940D01*
X487332020Y552604940D01*
X487352020Y552604940D01*
X487352020Y552350940D01*
X487332020Y552350940D01*
X487332020Y551151690D01*
X487490770Y550992940D01*
X488055020Y550989868D01*
X488179502Y551002128D01*
X488192801Y551006162D01*
X488192801Y548866407D01*
X488176962Y548871212D01*
X488052480Y548883472D01*
X487488230Y548880400D01*
X487329480Y548721650D01*
X487329480Y547522400D01*
X487349480Y547522400D01*
X487349480Y547268400D01*
X487329480Y547268400D01*
X487329480Y547248400D01*
X487075480Y547248400D01*
X487075480Y547268400D01*
X485876230Y547268400D01*
X485717480Y547109650D01*
X485714408Y546545400D01*
X485726668Y546420918D01*
X485762978Y546301220D01*
X485821943Y546190906D01*
X485901295Y546094215D01*
X485997986Y546014863D01*
X486108300Y545955898D01*
X486180860Y545933887D01*
X486049005Y545802032D01*
X485886490Y545558811D01*
X485774548Y545288558D01*
X485717480Y545001660D01*
X485717480Y544709140D01*
X485774548Y544422242D01*
X485886490Y544151989D01*
X486049005Y543908768D01*
X486255848Y543701925D01*
X486430240Y543585400D01*
X486255848Y543468875D01*
X486049005Y543262032D01*
X485886490Y543018811D01*
X485774548Y542748558D01*
X485717480Y542461660D01*
X485717480Y542169140D01*
X485774548Y541882242D01*
X485886490Y541611989D01*
X486049005Y541368768D01*
X486255848Y541161925D01*
X486499069Y540999410D01*
X486769322Y540887468D01*
X487056220Y540830400D01*
X487348740Y540830400D01*
X487635638Y540887468D01*
X487905891Y540999410D01*
X488149112Y541161925D01*
X488355955Y541368768D01*
X488518470Y541611989D01*
X488630412Y541882242D01*
X488687480Y542169140D01*
X488687480Y542461660D01*
X488630412Y542748558D01*
X488518470Y543018811D01*
X488355955Y543262032D01*
X488149112Y543468875D01*
X487974720Y543585400D01*
X488149112Y543701925D01*
X488185749Y543738562D01*
X489285000Y542639311D01*
X489285001Y536641298D01*
X489224774Y536495898D01*
X489185000Y536295939D01*
X489185000Y536092061D01*
X489224774Y535892102D01*
X489302795Y535703744D01*
X489368773Y535605000D01*
X488366302Y535605000D01*
X488343255Y535639492D01*
X488211400Y535771347D01*
X488283960Y535793358D01*
X488394274Y535852323D01*
X488490965Y535931675D01*
X488570317Y536028366D01*
X488629282Y536138680D01*
X488665592Y536258378D01*
X488677852Y536382860D01*
X488674780Y536947110D01*
X488516030Y537105860D01*
X487316780Y537105860D01*
X487316780Y537085860D01*
X487062780Y537085860D01*
X487062780Y537105860D01*
X485863530Y537105860D01*
X485704780Y536947110D01*
X485701708Y536382860D01*
X485713968Y536258378D01*
X485750278Y536138680D01*
X485809243Y536028366D01*
X485888595Y535931675D01*
X485985286Y535852323D01*
X486095600Y535793358D01*
X486168160Y535771347D01*
X486036305Y535639492D01*
X485873790Y535396271D01*
X485761848Y535126018D01*
X485704780Y534839120D01*
X485704780Y534546600D01*
X485761848Y534259702D01*
X485873790Y533989449D01*
X486036305Y533746228D01*
X486243148Y533539385D01*
X486486369Y533376870D01*
X486756622Y533264928D01*
X487043520Y533207860D01*
X487336040Y533207860D01*
X487622938Y533264928D01*
X487893191Y533376870D01*
X488136412Y533539385D01*
X488332027Y533735000D01*
X489402717Y533735000D01*
X489302795Y533585456D01*
X489224774Y533397098D01*
X489185000Y533197139D01*
X489185000Y532993261D01*
X489224774Y532793302D01*
X489285001Y532647903D01*
X489285000Y531032932D01*
X489280476Y530987000D01*
X489290545Y530884774D01*
X489298529Y530803709D01*
X489351993Y530627461D01*
X489438814Y530465029D01*
X489555656Y530322656D01*
X489591341Y530293370D01*
X490288370Y529596341D01*
X490317656Y529560656D01*
X490460028Y529443814D01*
X490622460Y529356993D01*
X490694828Y529335041D01*
X490798708Y529303528D01*
X490982000Y529285476D01*
X491027935Y529290000D01*
X491423705Y529290000D01*
X491569102Y529229774D01*
X491769061Y529190000D01*
X491972939Y529190000D01*
X492172898Y529229774D01*
X492361256Y529307795D01*
X492530774Y529421063D01*
X492674937Y529565226D01*
X492788205Y529734744D01*
X492866226Y529923102D01*
X492906000Y530123061D01*
X492906000Y530326939D01*
X492866226Y530526898D01*
X492788205Y530715256D01*
X492674937Y530884774D01*
X492530774Y531028937D01*
X492361256Y531142205D01*
X492172898Y531220226D01*
X491972939Y531260000D01*
X491769061Y531260000D01*
X491569102Y531220226D01*
X491423705Y531160000D01*
X491369289Y531160000D01*
X491155000Y531374289D01*
X491155000Y532647905D01*
X491215226Y532793302D01*
X491255000Y532993261D01*
X491255000Y533197139D01*
X491215226Y533397098D01*
X491137205Y533585456D01*
X491031593Y533743516D01*
X491082492Y533748529D01*
X491258740Y533801993D01*
X491421172Y533888814D01*
X491563544Y534005656D01*
X491592830Y534041341D01*
X492285418Y534733928D01*
X492651201Y534733928D01*
X492824455Y534750992D01*
X492991051Y534801528D01*
X493144587Y534883595D01*
X493279162Y534994038D01*
X493371135Y535106108D01*
X493318800Y534842999D01*
X493318800Y534547801D01*
X493376390Y534258275D01*
X493489358Y533985547D01*
X493653361Y533740098D01*
X493862098Y533531361D01*
X493965422Y533462322D01*
X493822958Y533367131D01*
X493605669Y533149842D01*
X493434946Y532894337D01*
X493317350Y532610435D01*
X493257400Y532309047D01*
X493257400Y532001753D01*
X493317350Y531700365D01*
X493434946Y531416463D01*
X493605669Y531160958D01*
X493822958Y530943669D01*
X494078463Y530772946D01*
X494362365Y530655350D01*
X494663753Y530595400D01*
X494971047Y530595400D01*
X495272435Y530655350D01*
X495556337Y530772946D01*
X495811842Y530943669D01*
X496029131Y531160958D01*
X496199854Y531416463D01*
X496317450Y531700365D01*
X496377400Y532001753D01*
X496377400Y532309047D01*
X496317450Y532610435D01*
X496199854Y532894337D01*
X496029131Y533149842D01*
X495811842Y533367131D01*
X495669378Y533462322D01*
X495772702Y533531361D01*
X495981439Y533740098D01*
X496145442Y533985547D01*
X496258410Y534258275D01*
X496316000Y534547801D01*
X496316000Y534842999D01*
X496258410Y535132525D01*
X496145442Y535405253D01*
X495981439Y535650702D01*
X495772702Y535859439D01*
X495614119Y535965400D01*
X495772702Y536071361D01*
X495976341Y536275000D01*
X498073468Y536275000D01*
X498119400Y536270476D01*
X498165332Y536275000D01*
X498302692Y536288529D01*
X498478940Y536341993D01*
X498641372Y536428814D01*
X498783744Y536545656D01*
X498813030Y536581341D01*
X507104665Y544872975D01*
X507140344Y544902256D01*
X507257186Y545044628D01*
X507344007Y545207060D01*
X507387965Y545351972D01*
X507397471Y545383307D01*
X507415524Y545566599D01*
X507411000Y545612531D01*
X507411000Y559063905D01*
X507471226Y559209302D01*
X507511000Y559409261D01*
X507511000Y559613139D01*
X507471226Y559813098D01*
X507393205Y560001456D01*
X507279937Y560170974D01*
X507135774Y560315137D01*
X506966256Y560428405D01*
X506777898Y560506426D01*
X506577939Y560546200D01*
X506374061Y560546200D01*
X506174102Y560506426D01*
X505985744Y560428405D01*
X505816226Y560315137D01*
X505702566Y560201477D01*
X505670856Y560222665D01*
X505482498Y560300686D01*
X505282539Y560340460D01*
X505078661Y560340460D01*
X504878702Y560300686D01*
X504690344Y560222665D01*
X504520826Y560109397D01*
X504376663Y559965234D01*
X504263395Y559795716D01*
X504185374Y559607358D01*
X504145600Y559407399D01*
X504145600Y559203521D01*
X504185374Y559003562D01*
X504245600Y558858165D01*
X504245601Y547477891D01*
X497452711Y540685000D01*
X496011976Y540685000D01*
X495981439Y540730702D01*
X495772702Y540939439D01*
X495614119Y541045400D01*
X495772702Y541151361D01*
X495981439Y541360098D01*
X496145442Y541605547D01*
X496258410Y541878275D01*
X496316000Y542167801D01*
X496316000Y542462999D01*
X496258410Y542752525D01*
X496145442Y543025253D01*
X495981439Y543270702D01*
X495772702Y543479439D01*
X495614119Y543585400D01*
X495772702Y543691361D01*
X495981439Y543900098D01*
X496145442Y544145547D01*
X496258410Y544418275D01*
X496316000Y544707801D01*
X496316000Y545002999D01*
X496258410Y545292525D01*
X496145442Y545565253D01*
X495981439Y545810702D01*
X495772702Y546019439D01*
X495614119Y546125400D01*
X495772702Y546231361D01*
X495981439Y546440098D01*
X496145442Y546685547D01*
X496258410Y546958275D01*
X496316000Y547247801D01*
X496316000Y547542999D01*
X496258410Y547832525D01*
X496145442Y548105253D01*
X495981439Y548350702D01*
X495772702Y548559439D01*
X495614119Y548665400D01*
X495772702Y548771361D01*
X495981439Y548980098D01*
X496145442Y549225547D01*
X496258410Y549498275D01*
X496316000Y549787801D01*
X496316000Y550082999D01*
X496258410Y550372525D01*
X496145442Y550645253D01*
X495981439Y550890702D01*
X495772702Y551099439D01*
X495614119Y551205400D01*
X495772702Y551311361D01*
X495981439Y551520098D01*
X496145442Y551765547D01*
X496258410Y552038275D01*
X496316000Y552327801D01*
X496316000Y552622999D01*
X496258410Y552912525D01*
X496145442Y553185253D01*
X495981439Y553430702D01*
X495772702Y553639439D01*
X495614119Y553745400D01*
X495772702Y553851361D01*
X495981439Y554060098D01*
X496145442Y554305547D01*
X496258410Y554578275D01*
X496316000Y554867801D01*
X496316000Y555162999D01*
X496258410Y555452525D01*
X496145442Y555725253D01*
X495981439Y555970702D01*
X495772702Y556179439D01*
X495614119Y556285400D01*
X495772702Y556391361D01*
X495976341Y556595000D01*
X496719648Y556595000D01*
X496765580Y556590476D01*
X496811512Y556595000D01*
X496948872Y556608529D01*
X497125120Y556661993D01*
X497287552Y556748814D01*
X497429924Y556865656D01*
X497459210Y556901341D01*
X500999178Y560441309D01*
X501144576Y560501535D01*
X501314094Y560614803D01*
X501458257Y560758966D01*
X501571525Y560928484D01*
X501649546Y561116842D01*
X501689320Y561316801D01*
X501689320Y561520679D01*
X501688461Y561525000D01*
X509048459Y561525000D01*
X509102098Y561471361D01*
X509260681Y561365400D01*
X509102098Y561259439D01*
X508893361Y561050702D01*
X508729358Y560805253D01*
X508616390Y560532525D01*
X508558800Y560242999D01*
X508558800Y559947801D01*
X508616390Y559658275D01*
X508729358Y559385547D01*
X508893361Y559140098D01*
X509102098Y558931361D01*
X509260681Y558825400D01*
X509102098Y558719439D01*
X508893361Y558510702D01*
X508729358Y558265253D01*
X508616390Y557992525D01*
X508558800Y557702999D01*
X508558800Y557407801D01*
X508616390Y557118275D01*
X508729358Y556845547D01*
X508893361Y556600098D01*
X509102098Y556391361D01*
X509260681Y556285400D01*
X509102098Y556179439D01*
X508893361Y555970702D01*
X508729358Y555725253D01*
X508616390Y555452525D01*
X508558800Y555162999D01*
X508558800Y554867801D01*
X508616390Y554578275D01*
X508729358Y554305547D01*
X508893361Y554060098D01*
X509102098Y553851361D01*
X509260681Y553745400D01*
X509102098Y553639439D01*
X508893361Y553430702D01*
X508729358Y553185253D01*
X508616390Y552912525D01*
X508558800Y552622999D01*
X508558800Y552327801D01*
X508616390Y552038275D01*
X508729358Y551765547D01*
X508893361Y551520098D01*
X509102098Y551311361D01*
X509260681Y551205400D01*
X509102098Y551099439D01*
X508893361Y550890702D01*
X508729358Y550645253D01*
X508616390Y550372525D01*
X508558800Y550082999D01*
X508558800Y549787801D01*
X508616390Y549498275D01*
X508729358Y549225547D01*
X508893361Y548980098D01*
X509102098Y548771361D01*
X509260681Y548665400D01*
X509102098Y548559439D01*
X508893361Y548350702D01*
X508729358Y548105253D01*
X508616390Y547832525D01*
X508558800Y547542999D01*
X508558800Y547247801D01*
X508616390Y546958275D01*
X508729358Y546685547D01*
X508893361Y546440098D01*
X509102098Y546231361D01*
X509260681Y546125400D01*
X509102098Y546019439D01*
X508893361Y545810702D01*
X508729358Y545565253D01*
X508616390Y545292525D01*
X508558800Y545002999D01*
X508558800Y544707801D01*
X508616390Y544418275D01*
X508729358Y544145547D01*
X508893361Y543900098D01*
X509102098Y543691361D01*
X509260681Y543585400D01*
X509102098Y543479439D01*
X508893361Y543270702D01*
X508780839Y543102300D01*
X508722628Y543071186D01*
X508580256Y542954344D01*
X508550970Y542918659D01*
X507625341Y541993030D01*
X507589656Y541963744D01*
X507472814Y541821371D01*
X507385993Y541658939D01*
X507375897Y541625656D01*
X507332529Y541482691D01*
X507314476Y541299400D01*
X507319000Y541253468D01*
X507319001Y533177690D01*
X507070942Y532929631D01*
X506925544Y532869405D01*
X506756026Y532756137D01*
X506611863Y532611974D01*
X506498595Y532442456D01*
X506420574Y532254098D01*
X506380800Y532054139D01*
X506380800Y531850261D01*
X506420574Y531650302D01*
X506498595Y531461944D01*
X506611863Y531292426D01*
X506756026Y531148263D01*
X506925544Y531034995D01*
X507113902Y530956974D01*
X507313861Y530917200D01*
X507517739Y530917200D01*
X507717698Y530956974D01*
X507906056Y531034995D01*
X508075574Y531148263D01*
X508219737Y531292426D01*
X508333005Y531461944D01*
X508393231Y531607342D01*
X508545554Y531759665D01*
X508557350Y531700365D01*
X508674946Y531416463D01*
X508845669Y531160958D01*
X509062958Y530943669D01*
X509318463Y530772946D01*
X509602365Y530655350D01*
X509903753Y530595400D01*
X510211047Y530595400D01*
X510512435Y530655350D01*
X510763665Y530759413D01*
X512532120Y530759413D01*
X512532120Y530437347D01*
X512594952Y530121468D01*
X512718202Y529823917D01*
X512897133Y529556128D01*
X513124868Y529328393D01*
X513392657Y529149462D01*
X513690208Y529026212D01*
X514006087Y528963380D01*
X514328153Y528963380D01*
X514644032Y529026212D01*
X514941583Y529149462D01*
X515209372Y529328393D01*
X515437107Y529556128D01*
X515616038Y529823917D01*
X515739288Y530121468D01*
X515802120Y530437347D01*
X515802120Y530759413D01*
X515739288Y531075292D01*
X515616038Y531372843D01*
X515437107Y531640632D01*
X515209372Y531868367D01*
X514941583Y532047298D01*
X514644032Y532170548D01*
X514328153Y532233380D01*
X514006087Y532233380D01*
X513690208Y532170548D01*
X513392657Y532047298D01*
X513124868Y531868367D01*
X512897133Y531640632D01*
X512718202Y531372843D01*
X512594952Y531075292D01*
X512532120Y530759413D01*
X510763665Y530759413D01*
X510796337Y530772946D01*
X511051842Y530943669D01*
X511269131Y531160958D01*
X511439854Y531416463D01*
X511557450Y531700365D01*
X511617400Y532001753D01*
X511617400Y532309047D01*
X511557450Y532610435D01*
X511439854Y532894337D01*
X511269131Y533149842D01*
X511051842Y533367131D01*
X510909378Y533462322D01*
X511012702Y533531361D01*
X511221439Y533740098D01*
X511385442Y533985547D01*
X511498410Y534258275D01*
X511556000Y534547801D01*
X511556000Y534842999D01*
X511498410Y535132525D01*
X511385442Y535405253D01*
X511221439Y535650702D01*
X511012702Y535859439D01*
X510854119Y535965400D01*
X511012702Y536071361D01*
X511221439Y536280098D01*
X511385442Y536525547D01*
X511498410Y536798275D01*
X511556000Y537087801D01*
X511556000Y537382999D01*
X511498410Y537672525D01*
X511385442Y537945253D01*
X511221439Y538190702D01*
X511012702Y538399439D01*
X510854119Y538505400D01*
X511012702Y538611361D01*
X511221439Y538820098D01*
X511385442Y539065547D01*
X511498410Y539338275D01*
X511556000Y539627801D01*
X511556000Y539922999D01*
X511498410Y540212525D01*
X511385442Y540485253D01*
X511221439Y540730702D01*
X511012702Y540939439D01*
X510854119Y541045400D01*
X511012702Y541151361D01*
X511221439Y541360098D01*
X511385442Y541605547D01*
X511498410Y541878275D01*
X511556000Y542167801D01*
X511556000Y542462999D01*
X511498410Y542752525D01*
X511385442Y543025253D01*
X511221439Y543270702D01*
X511012702Y543479439D01*
X510854119Y543585400D01*
X511012702Y543691361D01*
X511221439Y543900098D01*
X511385442Y544145547D01*
X511498410Y544418275D01*
X511556000Y544707801D01*
X511556000Y545002999D01*
X511498410Y545292525D01*
X511385442Y545565253D01*
X511221439Y545810702D01*
X511012702Y546019439D01*
X510854119Y546125400D01*
X511012702Y546231361D01*
X511221439Y546440098D01*
X511385442Y546685547D01*
X511498410Y546958275D01*
X511556000Y547247801D01*
X511556000Y547542999D01*
X511498410Y547832525D01*
X511385442Y548105253D01*
X511221439Y548350702D01*
X511012702Y548559439D01*
X510854119Y548665400D01*
X511012702Y548771361D01*
X511221439Y548980098D01*
X511385442Y549225547D01*
X511498410Y549498275D01*
X511556000Y549787801D01*
X511556000Y550082999D01*
X511498410Y550372525D01*
X511385442Y550645253D01*
X511221439Y550890702D01*
X511012702Y551099439D01*
X510854119Y551205400D01*
X511012702Y551311361D01*
X511221439Y551520098D01*
X511385442Y551765547D01*
X511498410Y552038275D01*
X511556000Y552327801D01*
X511556000Y552622999D01*
X511498410Y552912525D01*
X511385442Y553185253D01*
X511221439Y553430702D01*
X511012702Y553639439D01*
X510854119Y553745400D01*
X511012702Y553851361D01*
X511221439Y554060098D01*
X511385442Y554305547D01*
X511498410Y554578275D01*
X511556000Y554867801D01*
X511556000Y555162999D01*
X511498410Y555452525D01*
X511385442Y555725253D01*
X511221439Y555970702D01*
X511012702Y556179439D01*
X510854119Y556285400D01*
X511012702Y556391361D01*
X511221439Y556600098D01*
X511385442Y556845547D01*
X511498410Y557118275D01*
X511556000Y557407801D01*
X511556000Y557702999D01*
X511498410Y557992525D01*
X511385442Y558265253D01*
X511221439Y558510702D01*
X511012702Y558719439D01*
X510854119Y558825400D01*
X511012702Y558931361D01*
X511221439Y559140098D01*
X511385442Y559385547D01*
X511498410Y559658275D01*
X511556000Y559947801D01*
X511556000Y560242999D01*
X511498410Y560532525D01*
X511385442Y560805253D01*
X511221439Y561050702D01*
X511012702Y561259439D01*
X510854119Y561365400D01*
X511012702Y561471361D01*
X511221439Y561680098D01*
X511385442Y561925547D01*
X511498410Y562198275D01*
X511556000Y562487801D01*
X511556000Y562782999D01*
X511498410Y563072525D01*
X511385442Y563345253D01*
X511221439Y563590702D01*
X511012702Y563799439D01*
X510854119Y563905400D01*
X511012702Y564011361D01*
X511221439Y564220098D01*
X511301982Y564340640D01*
X513659488Y564340640D01*
X513671748Y564216158D01*
X513708058Y564096460D01*
X513767023Y563986146D01*
X513846375Y563889455D01*
X513943066Y563810103D01*
X514053380Y563751138D01*
X514173078Y563714828D01*
X514297560Y563702568D01*
X514861810Y563705640D01*
X515020560Y563864390D01*
X515020560Y565063640D01*
X513821310Y565063640D01*
X513662560Y564904890D01*
X513659488Y564340640D01*
X511301982Y564340640D01*
X511385442Y564465547D01*
X511498410Y564738275D01*
X511556000Y565027801D01*
X511556000Y565322999D01*
X511498410Y565612525D01*
X511385442Y565885253D01*
X511221439Y566130702D01*
X511012702Y566339439D01*
X510844525Y566451811D01*
X510915899Y566677296D01*
X510057400Y567535795D01*
X509198901Y566677296D01*
X509270275Y566451811D01*
X509102098Y566339439D01*
X508893361Y566130702D01*
X508729358Y565885253D01*
X508711480Y565842092D01*
X508711480Y567043482D01*
X508768833Y566936182D01*
X509019296Y566856901D01*
X509877795Y567715400D01*
X510237005Y567715400D01*
X511095504Y566856901D01*
X511345967Y566936182D01*
X511473226Y567202541D01*
X511546075Y567488610D01*
X511561715Y567783393D01*
X511519545Y568075564D01*
X511421186Y568353893D01*
X511345967Y568494618D01*
X511095504Y568573899D01*
X510237005Y567715400D01*
X509877795Y567715400D01*
X509019296Y568573899D01*
X508768833Y568494618D01*
X508711480Y568374576D01*
X508711480Y569588708D01*
X508729358Y569545547D01*
X508893361Y569300098D01*
X509102098Y569091361D01*
X509270275Y568978989D01*
X509198901Y568753504D01*
X510057400Y567895005D01*
X510915899Y568753504D01*
X510844525Y568978989D01*
X511012702Y569091361D01*
X511221439Y569300098D01*
X511385442Y569545547D01*
X511498410Y569818275D01*
X511556000Y570107801D01*
X511556000Y570402999D01*
X511498410Y570692525D01*
X511385442Y570965253D01*
X511221439Y571210702D01*
X511012702Y571419439D01*
X510909378Y571488478D01*
X511051842Y571583669D01*
X511269131Y571800958D01*
X511439854Y572056463D01*
X511557450Y572340365D01*
X511617400Y572641753D01*
X511617400Y572949047D01*
X511557450Y573250435D01*
X511439854Y573534337D01*
X511269131Y573789842D01*
X511051842Y574007131D01*
X510796337Y574177854D01*
X510512435Y574295450D01*
X510211047Y574355400D01*
X509903753Y574355400D01*
X509602365Y574295450D01*
X509318463Y574177854D01*
X509062958Y574007131D01*
X508845669Y573789842D01*
X508711480Y573589014D01*
X508711480Y573957511D01*
X509255970Y574502000D01*
X512109508Y574502000D01*
X512155440Y574497476D01*
X512201372Y574502000D01*
X512338732Y574515529D01*
X512514980Y574568993D01*
X512677412Y574655814D01*
X512819784Y574772656D01*
X512849070Y574808341D01*
X513044960Y575004231D01*
X513086323Y574942326D01*
X513230486Y574798163D01*
X513339868Y574725076D01*
X513303048Y574656191D01*
X513252512Y574489595D01*
X513235448Y574316341D01*
X513235448Y573616339D01*
X513252512Y573443085D01*
X513303048Y573276489D01*
X513385115Y573122953D01*
X513495558Y572988378D01*
X513522411Y572966340D01*
X513495558Y572944302D01*
X513385115Y572809727D01*
X513303048Y572656191D01*
X513252512Y572489595D01*
X513235448Y572316341D01*
X513235448Y571616339D01*
X513252512Y571443085D01*
X513303048Y571276489D01*
X513385115Y571122953D01*
X513495558Y570988378D01*
X513630133Y570877935D01*
X513704796Y570838027D01*
X513705514Y570835660D01*
X513792335Y570673228D01*
X513909177Y570530856D01*
X513944856Y570501575D01*
X514212560Y570233871D01*
X514212561Y568891888D01*
X514200928Y568884115D01*
X513994085Y568677272D01*
X513831570Y568434051D01*
X513719628Y568163798D01*
X513662560Y567876900D01*
X513662560Y567584380D01*
X513719628Y567297482D01*
X513831570Y567027229D01*
X513994085Y566784008D01*
X514125940Y566652153D01*
X514053380Y566630142D01*
X513943066Y566571177D01*
X513846375Y566491825D01*
X513767023Y566395134D01*
X513708058Y566284820D01*
X513671748Y566165122D01*
X513659488Y566040640D01*
X513662560Y565476390D01*
X513821310Y565317640D01*
X515020560Y565317640D01*
X515020560Y565337640D01*
X515274560Y565337640D01*
X515274560Y565317640D01*
X515294560Y565317640D01*
X515294560Y565063640D01*
X515274560Y565063640D01*
X515274560Y563864390D01*
X515433310Y563705640D01*
X515997560Y563702568D01*
X516122042Y563714828D01*
X516241740Y563751138D01*
X516352054Y563810103D01*
X516448745Y563889455D01*
X516507260Y563960757D01*
X516507261Y528911020D01*
X484539760Y528911020D01*
X484539760Y530716233D01*
X484597200Y530716233D01*
X484597200Y530394167D01*
X484660032Y530078288D01*
X484783282Y529780737D01*
X484962213Y529512948D01*
X485189948Y529285213D01*
X485457737Y529106282D01*
X485755288Y528983032D01*
X486071167Y528920200D01*
X486393233Y528920200D01*
X486709112Y528983032D01*
X487006663Y529106282D01*
X487274452Y529285213D01*
X487502187Y529512948D01*
X487681118Y529780737D01*
X487804368Y530078288D01*
X487867200Y530394167D01*
X487867200Y530716233D01*
X487804368Y531032112D01*
X487681118Y531329663D01*
X487502187Y531597452D01*
X487274452Y531825187D01*
X487006663Y532004118D01*
X486709112Y532127368D01*
X486393233Y532190200D01*
X486071167Y532190200D01*
X485755288Y532127368D01*
X485457737Y532004118D01*
X485189948Y531825187D01*
X484962213Y531597452D01*
X484783282Y531329663D01*
X484660032Y531032112D01*
X484597200Y530716233D01*
X484539760Y530716233D01*
X484539760Y538082860D01*
X485701708Y538082860D01*
X485704780Y537518610D01*
X485863530Y537359860D01*
X487062780Y537359860D01*
X487062780Y538559110D01*
X487316780Y538559110D01*
X487316780Y537359860D01*
X488516030Y537359860D01*
X488674780Y537518610D01*
X488677852Y538082860D01*
X488665592Y538207342D01*
X488629282Y538327040D01*
X488570317Y538437354D01*
X488490965Y538534045D01*
X488394274Y538613397D01*
X488283960Y538672362D01*
X488164262Y538708672D01*
X488039780Y538720932D01*
X487475530Y538717860D01*
X487316780Y538559110D01*
X487062780Y538559110D01*
X486904030Y538717860D01*
X486339780Y538720932D01*
X486215298Y538708672D01*
X486095600Y538672362D01*
X485985286Y538613397D01*
X485888595Y538534045D01*
X485809243Y538437354D01*
X485750278Y538327040D01*
X485713968Y538207342D01*
X485701708Y538082860D01*
X484539760Y538082860D01*
X484539760Y548245400D01*
X485714408Y548245400D01*
X485717480Y547681150D01*
X485876230Y547522400D01*
X487075480Y547522400D01*
X487075480Y548721650D01*
X486916730Y548880400D01*
X486352480Y548883472D01*
X486227998Y548871212D01*
X486108300Y548834902D01*
X485997986Y548775937D01*
X485901295Y548696585D01*
X485821943Y548599894D01*
X485762978Y548489580D01*
X485726668Y548369882D01*
X485714408Y548245400D01*
X484539760Y548245400D01*
X484539760Y551627940D01*
X485716948Y551627940D01*
X485729208Y551503458D01*
X485765518Y551383760D01*
X485824483Y551273446D01*
X485903835Y551176755D01*
X486000526Y551097403D01*
X486110840Y551038438D01*
X486230538Y551002128D01*
X486355020Y550989868D01*
X486919270Y550992940D01*
X487078020Y551151690D01*
X487078020Y552350940D01*
X485878770Y552350940D01*
X485720020Y552192190D01*
X485716948Y551627940D01*
X484539760Y551627940D01*
X484539760Y564320320D01*
X485716948Y564320320D01*
X485729208Y564195838D01*
X485765518Y564076140D01*
X485824483Y563965826D01*
X485903835Y563869135D01*
X486000526Y563789783D01*
X486110840Y563730818D01*
X486230538Y563694508D01*
X486355020Y563682248D01*
X486919270Y563685320D01*
X487078020Y563844070D01*
X487078020Y565043320D01*
X487332020Y565043320D01*
X487332020Y563844070D01*
X487490770Y563685320D01*
X488055020Y563682248D01*
X488179502Y563694508D01*
X488299200Y563730818D01*
X488409514Y563789783D01*
X488506205Y563869135D01*
X488585557Y563965826D01*
X488644522Y564076140D01*
X488680832Y564195838D01*
X488693092Y564320320D01*
X488690020Y564884570D01*
X488531270Y565043320D01*
X487332020Y565043320D01*
X487078020Y565043320D01*
X485878770Y565043320D01*
X485720020Y564884570D01*
X485716948Y564320320D01*
X484539760Y564320320D01*
X484539760Y572697240D01*
X485556928Y572697240D01*
X485569188Y572572758D01*
X485605498Y572453060D01*
X485664463Y572342746D01*
X485743815Y572246055D01*
X485840506Y572166703D01*
X485950820Y572107738D01*
X486070518Y572071428D01*
X486195000Y572059168D01*
X486759250Y572062240D01*
X486918000Y572220990D01*
X486918000Y573420240D01*
X487172000Y573420240D01*
X487172000Y572220990D01*
X487330750Y572062240D01*
X487895000Y572059168D01*
X488019482Y572071428D01*
X488139180Y572107738D01*
X488249494Y572166703D01*
X488346185Y572246055D01*
X488425537Y572342746D01*
X488484502Y572453060D01*
X488520812Y572572758D01*
X488533072Y572697240D01*
X488530000Y573261490D01*
X488371250Y573420240D01*
X487172000Y573420240D01*
X486918000Y573420240D01*
X485718750Y573420240D01*
X485560000Y573261490D01*
X485556928Y572697240D01*
X484539760Y572697240D01*
X484539760Y592156920D01*
X485556928Y592156920D01*
X485560000Y591592670D01*
X485718750Y591433920D01*
X486918000Y591433920D01*
X486918000Y592633170D01*
X487172000Y592633170D01*
X487172000Y591433920D01*
X488371250Y591433920D01*
X488530000Y591592670D01*
X488533072Y592156920D01*
X488520812Y592281402D01*
X488484502Y592401100D01*
X488425537Y592511414D01*
X488346185Y592608105D01*
X488249494Y592687457D01*
X488139180Y592746422D01*
X488019482Y592782732D01*
X487895000Y592794992D01*
X487330750Y592791920D01*
X487172000Y592633170D01*
X486918000Y592633170D01*
X486759250Y592791920D01*
X486195000Y592794992D01*
X486070518Y592782732D01*
X485950820Y592746422D01*
X485840506Y592687457D01*
X485743815Y592608105D01*
X485664463Y592511414D01*
X485605498Y592401100D01*
X485569188Y592281402D01*
X485556928Y592156920D01*
X484539760Y592156920D01*
X484539760Y596019633D01*
X484714040Y596019633D01*
X484714040Y595697567D01*
X484776872Y595381688D01*
X484900122Y595084137D01*
X485079053Y594816348D01*
X485306788Y594588613D01*
X485574577Y594409682D01*
X485872128Y594286432D01*
X486188007Y594223600D01*
X486510073Y594223600D01*
X486825952Y594286432D01*
X487123503Y594409682D01*
X487391292Y594588613D01*
X487619027Y594816348D01*
X487797958Y595084137D01*
X487921208Y595381688D01*
X487984040Y595697567D01*
X487984040Y596019633D01*
X487921208Y596335512D01*
X487797958Y596633063D01*
X487619027Y596900852D01*
X487391292Y597128587D01*
X487123503Y597307518D01*
X486825952Y597430768D01*
X486510073Y597493600D01*
X486188007Y597493600D01*
X485872128Y597430768D01*
X485574577Y597307518D01*
X485306788Y597128587D01*
X485079053Y596900852D01*
X484900122Y596633063D01*
X484776872Y596335512D01*
X484714040Y596019633D01*
X484539760Y596019633D01*
X484539760Y597759320D01*
X516507260Y597759320D01*
X516507260Y568328524D01*
%TA.AperFunction,Conductor*%
D22*
G36*
X516507260Y568328524D02*
G01*
X516463550Y568434051D01*
X516301035Y568677272D01*
X516094192Y568884115D01*
X516082560Y568891887D01*
X516082560Y570575229D01*
X516087084Y570621161D01*
X516069031Y570804453D01*
X516046740Y570877935D01*
X516015567Y570980700D01*
X515928746Y571143132D01*
X515834254Y571258271D01*
X515843992Y571276489D01*
X515894528Y571443085D01*
X515911592Y571616339D01*
X515911592Y572316341D01*
X515894528Y572489595D01*
X515843992Y572656191D01*
X515761925Y572809727D01*
X515651482Y572944302D01*
X515624629Y572966340D01*
X515651482Y572988378D01*
X515761925Y573122953D01*
X515843992Y573276489D01*
X515894528Y573443085D01*
X515911592Y573616339D01*
X515911592Y574316341D01*
X515894528Y574489595D01*
X515843992Y574656191D01*
X515761925Y574809727D01*
X515651482Y574944302D01*
X515516907Y575054745D01*
X515508520Y575059228D01*
X515508520Y575274229D01*
X515513044Y575320161D01*
X515494991Y575503453D01*
X515471292Y575581577D01*
X515441527Y575679700D01*
X515354706Y575842132D01*
X515237864Y575984504D01*
X515202180Y576013789D01*
X514985210Y576230759D01*
X514955924Y576266444D01*
X514813552Y576383286D01*
X514651120Y576470107D01*
X514543486Y576502757D01*
X515080260Y577039531D01*
X515115944Y577068816D01*
X515232786Y577211188D01*
X515292451Y577322814D01*
X515319607Y577373619D01*
X515373072Y577549868D01*
X515381956Y577640070D01*
X515394987Y577647035D01*
X515529562Y577757478D01*
X515640005Y577892053D01*
X515722072Y578045589D01*
X515772608Y578212185D01*
X515789672Y578385439D01*
X515789672Y579085441D01*
X515772608Y579258695D01*
X515722072Y579425291D01*
X515640005Y579578827D01*
X515529562Y579713402D01*
X515502709Y579735440D01*
X515529562Y579757478D01*
X515640005Y579892053D01*
X515722072Y580045589D01*
X515772608Y580212185D01*
X515789672Y580385439D01*
X515789672Y581085441D01*
X515772608Y581258695D01*
X515722072Y581425291D01*
X515640005Y581578827D01*
X515529562Y581713402D01*
X515394987Y581823845D01*
X515241451Y581905912D01*
X515074855Y581956448D01*
X514901601Y581973512D01*
X514522207Y581973512D01*
X514435220Y582020007D01*
X514258972Y582073471D01*
X514121612Y582087000D01*
X514075680Y582091524D01*
X514029748Y582087000D01*
X512880019Y582087000D01*
X512972694Y582148923D01*
X513116857Y582293086D01*
X513230125Y582462604D01*
X513290351Y582608002D01*
X513533163Y582850814D01*
X513623649Y582802448D01*
X513790245Y582751912D01*
X513963499Y582734848D01*
X514863501Y582734848D01*
X515036755Y582751912D01*
X515203351Y582802448D01*
X515356887Y582884515D01*
X515491462Y582994958D01*
X515601905Y583129533D01*
X515683972Y583283069D01*
X515734508Y583449665D01*
X515751572Y583622919D01*
X515751572Y584322921D01*
X515734508Y584496175D01*
X515683972Y584662771D01*
X515601905Y584816307D01*
X515491462Y584950882D01*
X515464609Y584972920D01*
X515491462Y584994958D01*
X515601905Y585129533D01*
X515683972Y585283069D01*
X515734508Y585449665D01*
X515751572Y585622919D01*
X515751572Y586322921D01*
X515734508Y586496175D01*
X515683972Y586662771D01*
X515601905Y586816307D01*
X515491462Y586950882D01*
X515356887Y587061325D01*
X515203351Y587143392D01*
X515036755Y587193928D01*
X514863501Y587210992D01*
X513963499Y587210992D01*
X513790245Y587193928D01*
X513623649Y587143392D01*
X513470113Y587061325D01*
X513335538Y586950882D01*
X513292643Y586898614D01*
X513249767Y586894391D01*
X513239456Y586891263D01*
X513073520Y586840927D01*
X512911088Y586754106D01*
X512768716Y586637264D01*
X512739434Y586601584D01*
X511704583Y585566732D01*
X511668896Y585537444D01*
X511552054Y585395071D01*
X511550690Y585392519D01*
X510803896Y584645725D01*
X510740077Y584709544D01*
X510525518Y584852907D01*
X510287113Y584951658D01*
X510235120Y584962000D01*
X510287113Y584972342D01*
X510525518Y585071093D01*
X510740077Y585214456D01*
X510922544Y585396923D01*
X511065907Y585611482D01*
X511164658Y585849887D01*
X511215000Y586102976D01*
X511215000Y586361024D01*
X511164658Y586614113D01*
X511065907Y586852518D01*
X510922544Y587067077D01*
X510740077Y587249544D01*
X510525518Y587392907D01*
X510287113Y587491658D01*
X510235120Y587502000D01*
X510287113Y587512342D01*
X510525518Y587611093D01*
X510740077Y587754456D01*
X510922544Y587936923D01*
X511065907Y588151482D01*
X511164658Y588389887D01*
X511215000Y588642976D01*
X511215000Y588901024D01*
X511164658Y589154113D01*
X511065907Y589392518D01*
X510922544Y589607077D01*
X510740077Y589789544D01*
X510525518Y589932907D01*
X510287113Y590031658D01*
X510235120Y590042000D01*
X510287113Y590052342D01*
X510525518Y590151093D01*
X510740077Y590294456D01*
X510922544Y590476923D01*
X511065907Y590691482D01*
X511164658Y590929887D01*
X511215000Y591182976D01*
X511215000Y591441024D01*
X511164658Y591694113D01*
X511065907Y591932518D01*
X510922544Y592147077D01*
X510740077Y592329544D01*
X510525518Y592472907D01*
X510287113Y592571658D01*
X510242720Y592580488D01*
X510477633Y592666741D01*
X510572370Y592717379D01*
X510628795Y592948600D01*
X509905000Y593672395D01*
X509181205Y592948600D01*
X509237630Y592717379D01*
X509471808Y592608983D01*
X509579576Y592582934D01*
X509522887Y592571658D01*
X509284482Y592472907D01*
X509069923Y592329544D01*
X508987379Y592247000D01*
X508172924Y592247000D01*
X508126999Y592251523D01*
X508081074Y592247000D01*
X508081068Y592247000D01*
X507962110Y592235283D01*
X507943707Y592233471D01*
X507890243Y592217253D01*
X507767460Y592180007D01*
X507605028Y592093186D01*
X507462656Y591976344D01*
X507433375Y591940665D01*
X504058200Y588565490D01*
X504058200Y589222911D01*
X508593672Y593758383D01*
X508630800Y593521602D01*
X508719741Y593279367D01*
X508770379Y593184630D01*
X509001600Y593128205D01*
X509725395Y593852000D01*
X510084605Y593852000D01*
X510808400Y593128205D01*
X511039621Y593184630D01*
X511148017Y593418808D01*
X511208645Y593669633D01*
X511219174Y593927465D01*
X511179200Y594182398D01*
X511090259Y594424633D01*
X511039621Y594519370D01*
X510808400Y594575795D01*
X510084605Y593852000D01*
X509725395Y593852000D01*
X509711253Y593866143D01*
X509890858Y594045748D01*
X509905000Y594031605D01*
X510628795Y594755400D01*
X510572370Y594986621D01*
X510338192Y595095017D01*
X510230424Y595121066D01*
X510287113Y595132342D01*
X510525518Y595231093D01*
X510740077Y595374456D01*
X510922544Y595556923D01*
X511065907Y595771482D01*
X511164658Y596009887D01*
X511168112Y596027253D01*
X512656580Y596027253D01*
X512656580Y595705187D01*
X512719412Y595389308D01*
X512842662Y595091757D01*
X513021593Y594823968D01*
X513249328Y594596233D01*
X513517117Y594417302D01*
X513814668Y594294052D01*
X514130547Y594231220D01*
X514452613Y594231220D01*
X514768492Y594294052D01*
X515066043Y594417302D01*
X515333832Y594596233D01*
X515561567Y594823968D01*
X515740498Y595091757D01*
X515863748Y595389308D01*
X515926580Y595705187D01*
X515926580Y596027253D01*
X515863748Y596343132D01*
X515740498Y596640683D01*
X515561567Y596908472D01*
X515333832Y597136207D01*
X515066043Y597315138D01*
X514768492Y597438388D01*
X514452613Y597501220D01*
X514130547Y597501220D01*
X513814668Y597438388D01*
X513517117Y597315138D01*
X513249328Y597136207D01*
X513021593Y596908472D01*
X512842662Y596640683D01*
X512719412Y596343132D01*
X512656580Y596027253D01*
X511168112Y596027253D01*
X511215000Y596262976D01*
X511215000Y596521024D01*
X511164658Y596774113D01*
X511065907Y597012518D01*
X510922544Y597227077D01*
X510740077Y597409544D01*
X510525518Y597552907D01*
X510287113Y597651658D01*
X510034024Y597702000D01*
X509775976Y597702000D01*
X509522887Y597651658D01*
X509284482Y597552907D01*
X509069923Y597409544D01*
X508887456Y597227077D01*
X508744093Y597012518D01*
X508645342Y596774113D01*
X508595000Y596521024D01*
X508595000Y596404289D01*
X502494541Y590303830D01*
X502458856Y590274544D01*
X502342014Y590132171D01*
X502255193Y589969739D01*
X502213140Y589831108D01*
X502201729Y589793491D01*
X502183676Y589610200D01*
X502188200Y589564268D01*
X502188201Y588016291D01*
X493320621Y579148710D01*
X493285907Y579232518D01*
X493142544Y579447077D01*
X492960077Y579629544D01*
X492745518Y579772907D01*
X492507113Y579871658D01*
X492455120Y579882000D01*
X492507113Y579892342D01*
X492745518Y579991093D01*
X492960077Y580134456D01*
X493142544Y580316923D01*
X493285907Y580531482D01*
X493384658Y580769887D01*
X493435000Y581022976D01*
X493435000Y581281024D01*
X493384658Y581534113D01*
X493285907Y581772518D01*
X493142544Y581987077D01*
X492960077Y582169544D01*
X492745518Y582312907D01*
X492507113Y582411658D01*
X492455120Y582422000D01*
X492507113Y582432342D01*
X492745518Y582531093D01*
X492960077Y582674456D01*
X493142544Y582856923D01*
X493285907Y583071482D01*
X493384658Y583309887D01*
X493435000Y583562976D01*
X493435000Y583821024D01*
X493384658Y584074113D01*
X493285907Y584312518D01*
X493142544Y584527077D01*
X492960077Y584709544D01*
X492745518Y584852907D01*
X492507113Y584951658D01*
X492455120Y584962000D01*
X492507113Y584972342D01*
X492745518Y585071093D01*
X492960077Y585214456D01*
X493142544Y585396923D01*
X493285907Y585611482D01*
X493384658Y585849887D01*
X493435000Y586102976D01*
X493435000Y586361024D01*
X493384658Y586614113D01*
X493285907Y586852518D01*
X493142544Y587067077D01*
X492960077Y587249544D01*
X492745518Y587392907D01*
X492507113Y587491658D01*
X492455120Y587502000D01*
X492507113Y587512342D01*
X492745518Y587611093D01*
X492960077Y587754456D01*
X493142544Y587936923D01*
X493285907Y588151482D01*
X493384658Y588389887D01*
X493435000Y588642976D01*
X493435000Y588901024D01*
X493384658Y589154113D01*
X493285907Y589392518D01*
X493142544Y589607077D01*
X492960077Y589789544D01*
X492745518Y589932907D01*
X492507113Y590031658D01*
X492455120Y590042000D01*
X492507113Y590052342D01*
X492745518Y590151093D01*
X492960077Y590294456D01*
X493142544Y590476923D01*
X493285907Y590691482D01*
X493384658Y590929887D01*
X493435000Y591182976D01*
X493435000Y591441024D01*
X493384658Y591694113D01*
X493285907Y591932518D01*
X493142544Y592147077D01*
X492960077Y592329544D01*
X492745518Y592472907D01*
X492507113Y592571658D01*
X492455120Y592582000D01*
X492507113Y592592342D01*
X492745518Y592691093D01*
X492960077Y592834456D01*
X493142544Y593016923D01*
X493285907Y593231482D01*
X493384658Y593469887D01*
X493435000Y593722976D01*
X493435000Y593981024D01*
X493384658Y594234113D01*
X493285907Y594472518D01*
X493142544Y594687077D01*
X492960077Y594869544D01*
X492745518Y595012907D01*
X492507113Y595111658D01*
X492455120Y595122000D01*
X492507113Y595132342D01*
X492745518Y595231093D01*
X492960077Y595374456D01*
X493142544Y595556923D01*
X493285907Y595771482D01*
X493384658Y596009887D01*
X493435000Y596262976D01*
X493435000Y596521024D01*
X493384658Y596774113D01*
X493285907Y597012518D01*
X493142544Y597227077D01*
X492960077Y597409544D01*
X492745518Y597552907D01*
X492507113Y597651658D01*
X492254024Y597702000D01*
X491995976Y597702000D01*
X491742887Y597651658D01*
X491504482Y597552907D01*
X491289923Y597409544D01*
X491107456Y597227077D01*
X490964093Y597012518D01*
X490865342Y596774113D01*
X490815000Y596521024D01*
X490815000Y596262976D01*
X490865342Y596009887D01*
X490964093Y595771482D01*
X491107456Y595556923D01*
X491289923Y595374456D01*
X491504482Y595231093D01*
X491742887Y595132342D01*
X491794880Y595122000D01*
X491742887Y595111658D01*
X491504482Y595012907D01*
X491289923Y594869544D01*
X491107456Y594687077D01*
X490964093Y594472518D01*
X490865342Y594234113D01*
X490815000Y593981024D01*
X490815000Y593722976D01*
X490865342Y593469887D01*
X490964093Y593231482D01*
X491107456Y593016923D01*
X491289923Y592834456D01*
X491504482Y592691093D01*
X491742887Y592592342D01*
X491794880Y592582000D01*
X491742887Y592571658D01*
X491504482Y592472907D01*
X491289923Y592329544D01*
X491107456Y592147077D01*
X490964093Y591932518D01*
X490865342Y591694113D01*
X490815000Y591441024D01*
X490815000Y591182976D01*
X490865342Y590929887D01*
X490964093Y590691482D01*
X491107456Y590476923D01*
X491289923Y590294456D01*
X491504482Y590151093D01*
X491742887Y590052342D01*
X491794880Y590042000D01*
X491742887Y590031658D01*
X491504482Y589932907D01*
X491289923Y589789544D01*
X491107456Y589607077D01*
X490964093Y589392518D01*
X490865342Y589154113D01*
X490815000Y588901024D01*
X490815000Y588642976D01*
X490865342Y588389887D01*
X490964093Y588151482D01*
X491107456Y587936923D01*
X491289923Y587754456D01*
X491504482Y587611093D01*
X491742887Y587512342D01*
X491794880Y587502000D01*
X491742887Y587491658D01*
X491504482Y587392907D01*
X491289923Y587249544D01*
X491107456Y587067077D01*
X490964093Y586852518D01*
X490865342Y586614113D01*
X490815000Y586361024D01*
X490815000Y586319209D01*
X488527271Y588606938D01*
X488530000Y588620660D01*
X488530000Y588913180D01*
X488472932Y589200078D01*
X488360990Y589470331D01*
X488198475Y589713552D01*
X488066620Y589845407D01*
X488139180Y589867418D01*
X488249494Y589926383D01*
X488346185Y590005735D01*
X488425537Y590102426D01*
X488484502Y590212740D01*
X488520812Y590332438D01*
X488533072Y590456920D01*
X488530000Y591021170D01*
X488371250Y591179920D01*
X487172000Y591179920D01*
X487172000Y591159920D01*
X486918000Y591159920D01*
X486918000Y591179920D01*
X485718750Y591179920D01*
X485560000Y591021170D01*
X485556928Y590456920D01*
X485569188Y590332438D01*
X485605498Y590212740D01*
X485664463Y590102426D01*
X485743815Y590005735D01*
X485840506Y589926383D01*
X485950820Y589867418D01*
X486023380Y589845407D01*
X485891525Y589713552D01*
X485729010Y589470331D01*
X485617068Y589200078D01*
X485560000Y588913180D01*
X485560000Y588620660D01*
X485617068Y588333762D01*
X485729010Y588063509D01*
X485891525Y587820288D01*
X486098368Y587613445D01*
X486272760Y587496920D01*
X486098368Y587380395D01*
X485891525Y587173552D01*
X485729010Y586930331D01*
X485617068Y586660078D01*
X485560000Y586373180D01*
X485560000Y586080660D01*
X485617068Y585793762D01*
X485729010Y585523509D01*
X485891525Y585280288D01*
X486098368Y585073445D01*
X486341589Y584910930D01*
X486611842Y584798988D01*
X486898740Y584741920D01*
X487191260Y584741920D01*
X487478158Y584798988D01*
X487748411Y584910930D01*
X487991632Y585073445D01*
X488000329Y585082142D01*
X488370601Y584711869D01*
X488370600Y579307450D01*
X488360990Y579330651D01*
X488198475Y579573872D01*
X487991632Y579780715D01*
X487748411Y579943230D01*
X487478158Y580055172D01*
X487191260Y580112240D01*
X486898740Y580112240D01*
X486611842Y580055172D01*
X486341589Y579943230D01*
X486098368Y579780715D01*
X485891525Y579573872D01*
X485729010Y579330651D01*
X485617068Y579060398D01*
X485560000Y578773500D01*
X485560000Y578480980D01*
X485617068Y578194082D01*
X485729010Y577923829D01*
X485891525Y577680608D01*
X486098368Y577473765D01*
X486272760Y577357240D01*
X486098368Y577240715D01*
X485891525Y577033872D01*
X485729010Y576790651D01*
X485617068Y576520398D01*
X485560000Y576233500D01*
X485560000Y575940980D01*
X485617068Y575654082D01*
X485729010Y575383829D01*
X485891525Y575140608D01*
X486023380Y575008753D01*
X485950820Y574986742D01*
X485840506Y574927777D01*
X485743815Y574848425D01*
X485664463Y574751734D01*
X485605498Y574641420D01*
X485569188Y574521722D01*
X485556928Y574397240D01*
X485560000Y573832990D01*
X485718750Y573674240D01*
X486918000Y573674240D01*
X486918000Y573694240D01*
X487172000Y573694240D01*
X487172000Y573674240D01*
X488371250Y573674240D01*
X488530000Y573832990D01*
X488531234Y574059724D01*
X488936881Y573654078D01*
X488936880Y572185847D01*
X488952580Y572026444D01*
X489014621Y571821921D01*
X489115371Y571633430D01*
X489250958Y571468218D01*
X489416170Y571332631D01*
X489604660Y571231881D01*
X489809183Y571169840D01*
X490021880Y571148891D01*
X490234576Y571169840D01*
X490439099Y571231881D01*
X490627590Y571332631D01*
X490792802Y571468218D01*
X490928389Y571633430D01*
X491029139Y571821920D01*
X491091180Y572026443D01*
X491106880Y572185846D01*
X491106880Y573930360D01*
X493746187Y573930360D01*
X493605669Y573789842D01*
X493434946Y573534337D01*
X493317350Y573250435D01*
X493257400Y572949047D01*
X493257400Y572641753D01*
X493317350Y572340365D01*
X493434946Y572056463D01*
X493605669Y571800958D01*
X493702129Y571704498D01*
X493599306Y571649537D01*
X493502615Y571570185D01*
X493423263Y571473494D01*
X493364298Y571363180D01*
X493327988Y571243482D01*
X493315728Y571119000D01*
X493315728Y569391800D01*
X493327988Y569267318D01*
X493364298Y569147620D01*
X493423263Y569037306D01*
X493502615Y568940615D01*
X493599306Y568861263D01*
X493709620Y568802298D01*
X493767423Y568784764D01*
X493653361Y568670702D01*
X493489358Y568425253D01*
X493376390Y568152525D01*
X493318800Y567862999D01*
X493318800Y567567801D01*
X493376390Y567278275D01*
X493489358Y567005547D01*
X493653361Y566760098D01*
X493862098Y566551361D01*
X494020681Y566445400D01*
X493862098Y566339439D01*
X493653361Y566130702D01*
X493489358Y565885253D01*
X493376390Y565612525D01*
X493318800Y565322999D01*
X493318800Y565027801D01*
X493376390Y564738275D01*
X493489358Y564465547D01*
X493653361Y564220098D01*
X493862098Y564011361D01*
X494020681Y563905400D01*
X493862098Y563799439D01*
X493653361Y563590702D01*
X493489358Y563345253D01*
X493376390Y563072525D01*
X493318800Y562782999D01*
X493318800Y562487801D01*
X493376390Y562198275D01*
X493489358Y561925547D01*
X493653361Y561680098D01*
X493862098Y561471361D01*
X494020681Y561365400D01*
X493862098Y561259439D01*
X493653361Y561050702D01*
X493489358Y560805253D01*
X493376390Y560532525D01*
X493318800Y560242999D01*
X493318800Y559947801D01*
X493376390Y559658275D01*
X493489358Y559385547D01*
X493653361Y559140098D01*
X493862098Y558931361D01*
X494020681Y558825400D01*
X493862098Y558719439D01*
X493653361Y558510702D01*
X493489358Y558265253D01*
X493376390Y557992525D01*
X493318800Y557702999D01*
X493318800Y557407801D01*
X493376390Y557118275D01*
X493489358Y556845547D01*
X493653361Y556600098D01*
X493862098Y556391361D01*
X494020681Y556285400D01*
X493862098Y556179439D01*
X493653361Y555970702D01*
X493489358Y555725253D01*
X493376390Y555452525D01*
X493318800Y555162999D01*
X493318800Y554867801D01*
X493376390Y554578275D01*
X493489358Y554305547D01*
X493653361Y554060098D01*
X493862098Y553851361D01*
X494020681Y553745400D01*
X493862098Y553639439D01*
X493653361Y553430702D01*
X493622824Y553385000D01*
X493401289Y553385000D01*
X493288600Y553497689D01*
X493288600Y557331668D01*
X493293124Y557377600D01*
X493275071Y557560892D01*
X493243772Y557664071D01*
X493221607Y557737140D01*
X493134786Y557899572D01*
X493017944Y558041944D01*
X492982254Y558071234D01*
X492740009Y558313480D01*
X492740009Y560719976D01*
X492744533Y560765911D01*
X492726481Y560949203D01*
X492673016Y561125451D01*
X492666950Y561136800D01*
X492586195Y561287883D01*
X492469353Y561430255D01*
X492460560Y561437471D01*
X492460560Y564161252D01*
X492468947Y564165735D01*
X492603522Y564276178D01*
X492713965Y564410753D01*
X492796032Y564564289D01*
X492846568Y564730885D01*
X492863632Y564904139D01*
X492863632Y565604141D01*
X492846568Y565777395D01*
X492796032Y565943991D01*
X492713965Y566097527D01*
X492603522Y566232102D01*
X492576669Y566254140D01*
X492603522Y566276178D01*
X492713965Y566410753D01*
X492796032Y566564289D01*
X492846568Y566730885D01*
X492863632Y566904139D01*
X492863632Y567604141D01*
X492846568Y567777395D01*
X492796032Y567943991D01*
X492713965Y568097527D01*
X492603522Y568232102D01*
X492468947Y568342545D01*
X492315411Y568424612D01*
X492148815Y568475148D01*
X491975561Y568492212D01*
X491590031Y568492212D01*
X491428920Y568578327D01*
X491252672Y568631791D01*
X491115312Y568645320D01*
X491069380Y568649844D01*
X491023448Y568645320D01*
X488366267Y568645320D01*
X488358495Y568656952D01*
X488151652Y568863795D01*
X487908431Y569026310D01*
X487638178Y569138252D01*
X487351280Y569195320D01*
X487058760Y569195320D01*
X486771862Y569138252D01*
X486501609Y569026310D01*
X486258388Y568863795D01*
X486051545Y568656952D01*
X485889030Y568413731D01*
X485777088Y568143478D01*
X485720020Y567856580D01*
X485720020Y567564060D01*
X485777088Y567277162D01*
X485889030Y567006909D01*
X486051545Y566763688D01*
X486183400Y566631833D01*
X486110840Y566609822D01*
X486000526Y566550857D01*
X485903835Y566471505D01*
X485824483Y566374814D01*
X485765518Y566264500D01*
X485729208Y566144802D01*
X485716948Y566020320D01*
X485720020Y565456070D01*
X485878770Y565297320D01*
X487078020Y565297320D01*
X487078020Y565317320D01*
X487332020Y565317320D01*
X487332020Y565297320D01*
X488531270Y565297320D01*
X488690020Y565456070D01*
X488693092Y566020320D01*
X488680832Y566144802D01*
X488644522Y566264500D01*
X488585557Y566374814D01*
X488506205Y566471505D01*
X488409514Y566550857D01*
X488299200Y566609822D01*
X488226640Y566631833D01*
X488358495Y566763688D01*
X488366267Y566775320D01*
X490200176Y566775320D01*
X490204552Y566730885D01*
X490255088Y566564289D01*
X490337155Y566410753D01*
X490447598Y566276178D01*
X490474451Y566254140D01*
X490447598Y566232102D01*
X490337155Y566097527D01*
X490255088Y565943991D01*
X490204552Y565777395D01*
X490187488Y565604141D01*
X490187488Y564904139D01*
X490204552Y564730885D01*
X490255088Y564564289D01*
X490337155Y564410753D01*
X490447598Y564276178D01*
X490582173Y564165735D01*
X490590560Y564161252D01*
X490590561Y561091302D01*
X490586036Y561045360D01*
X490604089Y560862069D01*
X490653611Y560698817D01*
X490657554Y560685820D01*
X490744375Y560523388D01*
X490861217Y560381016D01*
X490870010Y560373800D01*
X490870009Y558354681D01*
X488590074Y560634615D01*
X488521010Y560801351D01*
X488358495Y561044572D01*
X488151652Y561251415D01*
X487908431Y561413930D01*
X487638178Y561525872D01*
X487351280Y561582940D01*
X487058760Y561582940D01*
X486771862Y561525872D01*
X486501609Y561413930D01*
X486258388Y561251415D01*
X486051545Y561044572D01*
X485889030Y560801351D01*
X485777088Y560531098D01*
X485720020Y560244200D01*
X485720020Y559951680D01*
X485777088Y559664782D01*
X485889030Y559394529D01*
X486051545Y559151308D01*
X486258388Y558944465D01*
X486432780Y558827940D01*
X486258388Y558711415D01*
X486051545Y558504572D01*
X485889030Y558261351D01*
X485777088Y557991098D01*
X485720020Y557704200D01*
X485720020Y557411680D01*
X485777088Y557124782D01*
X485889030Y556854529D01*
X486051545Y556611308D01*
X486258388Y556404465D01*
X486432780Y556287940D01*
X486258388Y556171415D01*
X486051545Y555964572D01*
X485889030Y555721351D01*
X485777088Y555451098D01*
X485720020Y555164200D01*
X485720020Y554871680D01*
X485777088Y554584782D01*
X485889030Y554314529D01*
X486051545Y554071308D01*
X486183400Y553939453D01*
X486110840Y553917442D01*
X486000526Y553858477D01*
X485903835Y553779125D01*
X485824483Y553682434D01*
X485765518Y553572120D01*
X485729208Y553452422D01*
X485716948Y553327940D01*
X485720020Y552763690D01*
X485878770Y552604940D01*
X487078020Y552604940D01*
X487078020Y552624940D01*
X487332020Y552624940D01*
X487332020Y552604940D01*
X487352020Y552604940D01*
X487352020Y552350940D01*
X487332020Y552350940D01*
X487332020Y551151690D01*
X487490770Y550992940D01*
X488055020Y550989868D01*
X488179502Y551002128D01*
X488192801Y551006162D01*
X488192801Y548866407D01*
X488176962Y548871212D01*
X488052480Y548883472D01*
X487488230Y548880400D01*
X487329480Y548721650D01*
X487329480Y547522400D01*
X487349480Y547522400D01*
X487349480Y547268400D01*
X487329480Y547268400D01*
X487329480Y547248400D01*
X487075480Y547248400D01*
X487075480Y547268400D01*
X485876230Y547268400D01*
X485717480Y547109650D01*
X485714408Y546545400D01*
X485726668Y546420918D01*
X485762978Y546301220D01*
X485821943Y546190906D01*
X485901295Y546094215D01*
X485997986Y546014863D01*
X486108300Y545955898D01*
X486180860Y545933887D01*
X486049005Y545802032D01*
X485886490Y545558811D01*
X485774548Y545288558D01*
X485717480Y545001660D01*
X485717480Y544709140D01*
X485774548Y544422242D01*
X485886490Y544151989D01*
X486049005Y543908768D01*
X486255848Y543701925D01*
X486430240Y543585400D01*
X486255848Y543468875D01*
X486049005Y543262032D01*
X485886490Y543018811D01*
X485774548Y542748558D01*
X485717480Y542461660D01*
X485717480Y542169140D01*
X485774548Y541882242D01*
X485886490Y541611989D01*
X486049005Y541368768D01*
X486255848Y541161925D01*
X486499069Y540999410D01*
X486769322Y540887468D01*
X487056220Y540830400D01*
X487348740Y540830400D01*
X487635638Y540887468D01*
X487905891Y540999410D01*
X488149112Y541161925D01*
X488355955Y541368768D01*
X488518470Y541611989D01*
X488630412Y541882242D01*
X488687480Y542169140D01*
X488687480Y542461660D01*
X488630412Y542748558D01*
X488518470Y543018811D01*
X488355955Y543262032D01*
X488149112Y543468875D01*
X487974720Y543585400D01*
X488149112Y543701925D01*
X488185749Y543738562D01*
X489285000Y542639311D01*
X489285001Y536641298D01*
X489224774Y536495898D01*
X489185000Y536295939D01*
X489185000Y536092061D01*
X489224774Y535892102D01*
X489302795Y535703744D01*
X489368773Y535605000D01*
X488366302Y535605000D01*
X488343255Y535639492D01*
X488211400Y535771347D01*
X488283960Y535793358D01*
X488394274Y535852323D01*
X488490965Y535931675D01*
X488570317Y536028366D01*
X488629282Y536138680D01*
X488665592Y536258378D01*
X488677852Y536382860D01*
X488674780Y536947110D01*
X488516030Y537105860D01*
X487316780Y537105860D01*
X487316780Y537085860D01*
X487062780Y537085860D01*
X487062780Y537105860D01*
X485863530Y537105860D01*
X485704780Y536947110D01*
X485701708Y536382860D01*
X485713968Y536258378D01*
X485750278Y536138680D01*
X485809243Y536028366D01*
X485888595Y535931675D01*
X485985286Y535852323D01*
X486095600Y535793358D01*
X486168160Y535771347D01*
X486036305Y535639492D01*
X485873790Y535396271D01*
X485761848Y535126018D01*
X485704780Y534839120D01*
X485704780Y534546600D01*
X485761848Y534259702D01*
X485873790Y533989449D01*
X486036305Y533746228D01*
X486243148Y533539385D01*
X486486369Y533376870D01*
X486756622Y533264928D01*
X487043520Y533207860D01*
X487336040Y533207860D01*
X487622938Y533264928D01*
X487893191Y533376870D01*
X488136412Y533539385D01*
X488332027Y533735000D01*
X489402717Y533735000D01*
X489302795Y533585456D01*
X489224774Y533397098D01*
X489185000Y533197139D01*
X489185000Y532993261D01*
X489224774Y532793302D01*
X489285001Y532647903D01*
X489285000Y531032932D01*
X489280476Y530987000D01*
X489290545Y530884774D01*
X489298529Y530803709D01*
X489351993Y530627461D01*
X489438814Y530465029D01*
X489555656Y530322656D01*
X489591341Y530293370D01*
X490288370Y529596341D01*
X490317656Y529560656D01*
X490460028Y529443814D01*
X490622460Y529356993D01*
X490694828Y529335041D01*
X490798708Y529303528D01*
X490982000Y529285476D01*
X491027935Y529290000D01*
X491423705Y529290000D01*
X491569102Y529229774D01*
X491769061Y529190000D01*
X491972939Y529190000D01*
X492172898Y529229774D01*
X492361256Y529307795D01*
X492530774Y529421063D01*
X492674937Y529565226D01*
X492788205Y529734744D01*
X492866226Y529923102D01*
X492906000Y530123061D01*
X492906000Y530326939D01*
X492866226Y530526898D01*
X492788205Y530715256D01*
X492674937Y530884774D01*
X492530774Y531028937D01*
X492361256Y531142205D01*
X492172898Y531220226D01*
X491972939Y531260000D01*
X491769061Y531260000D01*
X491569102Y531220226D01*
X491423705Y531160000D01*
X491369289Y531160000D01*
X491155000Y531374289D01*
X491155000Y532647905D01*
X491215226Y532793302D01*
X491255000Y532993261D01*
X491255000Y533197139D01*
X491215226Y533397098D01*
X491137205Y533585456D01*
X491031593Y533743516D01*
X491082492Y533748529D01*
X491258740Y533801993D01*
X491421172Y533888814D01*
X491563544Y534005656D01*
X491592830Y534041341D01*
X492285418Y534733928D01*
X492651201Y534733928D01*
X492824455Y534750992D01*
X492991051Y534801528D01*
X493144587Y534883595D01*
X493279162Y534994038D01*
X493371135Y535106108D01*
X493318800Y534842999D01*
X493318800Y534547801D01*
X493376390Y534258275D01*
X493489358Y533985547D01*
X493653361Y533740098D01*
X493862098Y533531361D01*
X493965422Y533462322D01*
X493822958Y533367131D01*
X493605669Y533149842D01*
X493434946Y532894337D01*
X493317350Y532610435D01*
X493257400Y532309047D01*
X493257400Y532001753D01*
X493317350Y531700365D01*
X493434946Y531416463D01*
X493605669Y531160958D01*
X493822958Y530943669D01*
X494078463Y530772946D01*
X494362365Y530655350D01*
X494663753Y530595400D01*
X494971047Y530595400D01*
X495272435Y530655350D01*
X495556337Y530772946D01*
X495811842Y530943669D01*
X496029131Y531160958D01*
X496199854Y531416463D01*
X496317450Y531700365D01*
X496377400Y532001753D01*
X496377400Y532309047D01*
X496317450Y532610435D01*
X496199854Y532894337D01*
X496029131Y533149842D01*
X495811842Y533367131D01*
X495669378Y533462322D01*
X495772702Y533531361D01*
X495981439Y533740098D01*
X496145442Y533985547D01*
X496258410Y534258275D01*
X496316000Y534547801D01*
X496316000Y534842999D01*
X496258410Y535132525D01*
X496145442Y535405253D01*
X495981439Y535650702D01*
X495772702Y535859439D01*
X495614119Y535965400D01*
X495772702Y536071361D01*
X495976341Y536275000D01*
X498073468Y536275000D01*
X498119400Y536270476D01*
X498165332Y536275000D01*
X498302692Y536288529D01*
X498478940Y536341993D01*
X498641372Y536428814D01*
X498783744Y536545656D01*
X498813030Y536581341D01*
X507104665Y544872975D01*
X507140344Y544902256D01*
X507257186Y545044628D01*
X507344007Y545207060D01*
X507387965Y545351972D01*
X507397471Y545383307D01*
X507415524Y545566599D01*
X507411000Y545612531D01*
X507411000Y559063905D01*
X507471226Y559209302D01*
X507511000Y559409261D01*
X507511000Y559613139D01*
X507471226Y559813098D01*
X507393205Y560001456D01*
X507279937Y560170974D01*
X507135774Y560315137D01*
X506966256Y560428405D01*
X506777898Y560506426D01*
X506577939Y560546200D01*
X506374061Y560546200D01*
X506174102Y560506426D01*
X505985744Y560428405D01*
X505816226Y560315137D01*
X505702566Y560201477D01*
X505670856Y560222665D01*
X505482498Y560300686D01*
X505282539Y560340460D01*
X505078661Y560340460D01*
X504878702Y560300686D01*
X504690344Y560222665D01*
X504520826Y560109397D01*
X504376663Y559965234D01*
X504263395Y559795716D01*
X504185374Y559607358D01*
X504145600Y559407399D01*
X504145600Y559203521D01*
X504185374Y559003562D01*
X504245600Y558858165D01*
X504245601Y547477891D01*
X497452711Y540685000D01*
X496011976Y540685000D01*
X495981439Y540730702D01*
X495772702Y540939439D01*
X495614119Y541045400D01*
X495772702Y541151361D01*
X495981439Y541360098D01*
X496145442Y541605547D01*
X496258410Y541878275D01*
X496316000Y542167801D01*
X496316000Y542462999D01*
X496258410Y542752525D01*
X496145442Y543025253D01*
X495981439Y543270702D01*
X495772702Y543479439D01*
X495614119Y543585400D01*
X495772702Y543691361D01*
X495981439Y543900098D01*
X496145442Y544145547D01*
X496258410Y544418275D01*
X496316000Y544707801D01*
X496316000Y545002999D01*
X496258410Y545292525D01*
X496145442Y545565253D01*
X495981439Y545810702D01*
X495772702Y546019439D01*
X495614119Y546125400D01*
X495772702Y546231361D01*
X495981439Y546440098D01*
X496145442Y546685547D01*
X496258410Y546958275D01*
X496316000Y547247801D01*
X496316000Y547542999D01*
X496258410Y547832525D01*
X496145442Y548105253D01*
X495981439Y548350702D01*
X495772702Y548559439D01*
X495614119Y548665400D01*
X495772702Y548771361D01*
X495981439Y548980098D01*
X496145442Y549225547D01*
X496258410Y549498275D01*
X496316000Y549787801D01*
X496316000Y550082999D01*
X496258410Y550372525D01*
X496145442Y550645253D01*
X495981439Y550890702D01*
X495772702Y551099439D01*
X495614119Y551205400D01*
X495772702Y551311361D01*
X495981439Y551520098D01*
X496145442Y551765547D01*
X496258410Y552038275D01*
X496316000Y552327801D01*
X496316000Y552622999D01*
X496258410Y552912525D01*
X496145442Y553185253D01*
X495981439Y553430702D01*
X495772702Y553639439D01*
X495614119Y553745400D01*
X495772702Y553851361D01*
X495981439Y554060098D01*
X496145442Y554305547D01*
X496258410Y554578275D01*
X496316000Y554867801D01*
X496316000Y555162999D01*
X496258410Y555452525D01*
X496145442Y555725253D01*
X495981439Y555970702D01*
X495772702Y556179439D01*
X495614119Y556285400D01*
X495772702Y556391361D01*
X495976341Y556595000D01*
X496719648Y556595000D01*
X496765580Y556590476D01*
X496811512Y556595000D01*
X496948872Y556608529D01*
X497125120Y556661993D01*
X497287552Y556748814D01*
X497429924Y556865656D01*
X497459210Y556901341D01*
X500999178Y560441309D01*
X501144576Y560501535D01*
X501314094Y560614803D01*
X501458257Y560758966D01*
X501571525Y560928484D01*
X501649546Y561116842D01*
X501689320Y561316801D01*
X501689320Y561520679D01*
X501688461Y561525000D01*
X509048459Y561525000D01*
X509102098Y561471361D01*
X509260681Y561365400D01*
X509102098Y561259439D01*
X508893361Y561050702D01*
X508729358Y560805253D01*
X508616390Y560532525D01*
X508558800Y560242999D01*
X508558800Y559947801D01*
X508616390Y559658275D01*
X508729358Y559385547D01*
X508893361Y559140098D01*
X509102098Y558931361D01*
X509260681Y558825400D01*
X509102098Y558719439D01*
X508893361Y558510702D01*
X508729358Y558265253D01*
X508616390Y557992525D01*
X508558800Y557702999D01*
X508558800Y557407801D01*
X508616390Y557118275D01*
X508729358Y556845547D01*
X508893361Y556600098D01*
X509102098Y556391361D01*
X509260681Y556285400D01*
X509102098Y556179439D01*
X508893361Y555970702D01*
X508729358Y555725253D01*
X508616390Y555452525D01*
X508558800Y555162999D01*
X508558800Y554867801D01*
X508616390Y554578275D01*
X508729358Y554305547D01*
X508893361Y554060098D01*
X509102098Y553851361D01*
X509260681Y553745400D01*
X509102098Y553639439D01*
X508893361Y553430702D01*
X508729358Y553185253D01*
X508616390Y552912525D01*
X508558800Y552622999D01*
X508558800Y552327801D01*
X508616390Y552038275D01*
X508729358Y551765547D01*
X508893361Y551520098D01*
X509102098Y551311361D01*
X509260681Y551205400D01*
X509102098Y551099439D01*
X508893361Y550890702D01*
X508729358Y550645253D01*
X508616390Y550372525D01*
X508558800Y550082999D01*
X508558800Y549787801D01*
X508616390Y549498275D01*
X508729358Y549225547D01*
X508893361Y548980098D01*
X509102098Y548771361D01*
X509260681Y548665400D01*
X509102098Y548559439D01*
X508893361Y548350702D01*
X508729358Y548105253D01*
X508616390Y547832525D01*
X508558800Y547542999D01*
X508558800Y547247801D01*
X508616390Y546958275D01*
X508729358Y546685547D01*
X508893361Y546440098D01*
X509102098Y546231361D01*
X509260681Y546125400D01*
X509102098Y546019439D01*
X508893361Y545810702D01*
X508729358Y545565253D01*
X508616390Y545292525D01*
X508558800Y545002999D01*
X508558800Y544707801D01*
X508616390Y544418275D01*
X508729358Y544145547D01*
X508893361Y543900098D01*
X509102098Y543691361D01*
X509260681Y543585400D01*
X509102098Y543479439D01*
X508893361Y543270702D01*
X508780839Y543102300D01*
X508722628Y543071186D01*
X508580256Y542954344D01*
X508550970Y542918659D01*
X507625341Y541993030D01*
X507589656Y541963744D01*
X507472814Y541821371D01*
X507385993Y541658939D01*
X507375897Y541625656D01*
X507332529Y541482691D01*
X507314476Y541299400D01*
X507319000Y541253468D01*
X507319001Y533177690D01*
X507070942Y532929631D01*
X506925544Y532869405D01*
X506756026Y532756137D01*
X506611863Y532611974D01*
X506498595Y532442456D01*
X506420574Y532254098D01*
X506380800Y532054139D01*
X506380800Y531850261D01*
X506420574Y531650302D01*
X506498595Y531461944D01*
X506611863Y531292426D01*
X506756026Y531148263D01*
X506925544Y531034995D01*
X507113902Y530956974D01*
X507313861Y530917200D01*
X507517739Y530917200D01*
X507717698Y530956974D01*
X507906056Y531034995D01*
X508075574Y531148263D01*
X508219737Y531292426D01*
X508333005Y531461944D01*
X508393231Y531607342D01*
X508545554Y531759665D01*
X508557350Y531700365D01*
X508674946Y531416463D01*
X508845669Y531160958D01*
X509062958Y530943669D01*
X509318463Y530772946D01*
X509602365Y530655350D01*
X509903753Y530595400D01*
X510211047Y530595400D01*
X510512435Y530655350D01*
X510763665Y530759413D01*
X512532120Y530759413D01*
X512532120Y530437347D01*
X512594952Y530121468D01*
X512718202Y529823917D01*
X512897133Y529556128D01*
X513124868Y529328393D01*
X513392657Y529149462D01*
X513690208Y529026212D01*
X514006087Y528963380D01*
X514328153Y528963380D01*
X514644032Y529026212D01*
X514941583Y529149462D01*
X515209372Y529328393D01*
X515437107Y529556128D01*
X515616038Y529823917D01*
X515739288Y530121468D01*
X515802120Y530437347D01*
X515802120Y530759413D01*
X515739288Y531075292D01*
X515616038Y531372843D01*
X515437107Y531640632D01*
X515209372Y531868367D01*
X514941583Y532047298D01*
X514644032Y532170548D01*
X514328153Y532233380D01*
X514006087Y532233380D01*
X513690208Y532170548D01*
X513392657Y532047298D01*
X513124868Y531868367D01*
X512897133Y531640632D01*
X512718202Y531372843D01*
X512594952Y531075292D01*
X512532120Y530759413D01*
X510763665Y530759413D01*
X510796337Y530772946D01*
X511051842Y530943669D01*
X511269131Y531160958D01*
X511439854Y531416463D01*
X511557450Y531700365D01*
X511617400Y532001753D01*
X511617400Y532309047D01*
X511557450Y532610435D01*
X511439854Y532894337D01*
X511269131Y533149842D01*
X511051842Y533367131D01*
X510909378Y533462322D01*
X511012702Y533531361D01*
X511221439Y533740098D01*
X511385442Y533985547D01*
X511498410Y534258275D01*
X511556000Y534547801D01*
X511556000Y534842999D01*
X511498410Y535132525D01*
X511385442Y535405253D01*
X511221439Y535650702D01*
X511012702Y535859439D01*
X510854119Y535965400D01*
X511012702Y536071361D01*
X511221439Y536280098D01*
X511385442Y536525547D01*
X511498410Y536798275D01*
X511556000Y537087801D01*
X511556000Y537382999D01*
X511498410Y537672525D01*
X511385442Y537945253D01*
X511221439Y538190702D01*
X511012702Y538399439D01*
X510854119Y538505400D01*
X511012702Y538611361D01*
X511221439Y538820098D01*
X511385442Y539065547D01*
X511498410Y539338275D01*
X511556000Y539627801D01*
X511556000Y539922999D01*
X511498410Y540212525D01*
X511385442Y540485253D01*
X511221439Y540730702D01*
X511012702Y540939439D01*
X510854119Y541045400D01*
X511012702Y541151361D01*
X511221439Y541360098D01*
X511385442Y541605547D01*
X511498410Y541878275D01*
X511556000Y542167801D01*
X511556000Y542462999D01*
X511498410Y542752525D01*
X511385442Y543025253D01*
X511221439Y543270702D01*
X511012702Y543479439D01*
X510854119Y543585400D01*
X511012702Y543691361D01*
X511221439Y543900098D01*
X511385442Y544145547D01*
X511498410Y544418275D01*
X511556000Y544707801D01*
X511556000Y545002999D01*
X511498410Y545292525D01*
X511385442Y545565253D01*
X511221439Y545810702D01*
X511012702Y546019439D01*
X510854119Y546125400D01*
X511012702Y546231361D01*
X511221439Y546440098D01*
X511385442Y546685547D01*
X511498410Y546958275D01*
X511556000Y547247801D01*
X511556000Y547542999D01*
X511498410Y547832525D01*
X511385442Y548105253D01*
X511221439Y548350702D01*
X511012702Y548559439D01*
X510854119Y548665400D01*
X511012702Y548771361D01*
X511221439Y548980098D01*
X511385442Y549225547D01*
X511498410Y549498275D01*
X511556000Y549787801D01*
X511556000Y550082999D01*
X511498410Y550372525D01*
X511385442Y550645253D01*
X511221439Y550890702D01*
X511012702Y551099439D01*
X510854119Y551205400D01*
X511012702Y551311361D01*
X511221439Y551520098D01*
X511385442Y551765547D01*
X511498410Y552038275D01*
X511556000Y552327801D01*
X511556000Y552622999D01*
X511498410Y552912525D01*
X511385442Y553185253D01*
X511221439Y553430702D01*
X511012702Y553639439D01*
X510854119Y553745400D01*
X511012702Y553851361D01*
X511221439Y554060098D01*
X511385442Y554305547D01*
X511498410Y554578275D01*
X511556000Y554867801D01*
X511556000Y555162999D01*
X511498410Y555452525D01*
X511385442Y555725253D01*
X511221439Y555970702D01*
X511012702Y556179439D01*
X510854119Y556285400D01*
X511012702Y556391361D01*
X511221439Y556600098D01*
X511385442Y556845547D01*
X511498410Y557118275D01*
X511556000Y557407801D01*
X511556000Y557702999D01*
X511498410Y557992525D01*
X511385442Y558265253D01*
X511221439Y558510702D01*
X511012702Y558719439D01*
X510854119Y558825400D01*
X511012702Y558931361D01*
X511221439Y559140098D01*
X511385442Y559385547D01*
X511498410Y559658275D01*
X511556000Y559947801D01*
X511556000Y560242999D01*
X511498410Y560532525D01*
X511385442Y560805253D01*
X511221439Y561050702D01*
X511012702Y561259439D01*
X510854119Y561365400D01*
X511012702Y561471361D01*
X511221439Y561680098D01*
X511385442Y561925547D01*
X511498410Y562198275D01*
X511556000Y562487801D01*
X511556000Y562782999D01*
X511498410Y563072525D01*
X511385442Y563345253D01*
X511221439Y563590702D01*
X511012702Y563799439D01*
X510854119Y563905400D01*
X511012702Y564011361D01*
X511221439Y564220098D01*
X511301982Y564340640D01*
X513659488Y564340640D01*
X513671748Y564216158D01*
X513708058Y564096460D01*
X513767023Y563986146D01*
X513846375Y563889455D01*
X513943066Y563810103D01*
X514053380Y563751138D01*
X514173078Y563714828D01*
X514297560Y563702568D01*
X514861810Y563705640D01*
X515020560Y563864390D01*
X515020560Y565063640D01*
X513821310Y565063640D01*
X513662560Y564904890D01*
X513659488Y564340640D01*
X511301982Y564340640D01*
X511385442Y564465547D01*
X511498410Y564738275D01*
X511556000Y565027801D01*
X511556000Y565322999D01*
X511498410Y565612525D01*
X511385442Y565885253D01*
X511221439Y566130702D01*
X511012702Y566339439D01*
X510844525Y566451811D01*
X510915899Y566677296D01*
X510057400Y567535795D01*
X509198901Y566677296D01*
X509270275Y566451811D01*
X509102098Y566339439D01*
X508893361Y566130702D01*
X508729358Y565885253D01*
X508711480Y565842092D01*
X508711480Y567043482D01*
X508768833Y566936182D01*
X509019296Y566856901D01*
X509877795Y567715400D01*
X510237005Y567715400D01*
X511095504Y566856901D01*
X511345967Y566936182D01*
X511473226Y567202541D01*
X511546075Y567488610D01*
X511561715Y567783393D01*
X511519545Y568075564D01*
X511421186Y568353893D01*
X511345967Y568494618D01*
X511095504Y568573899D01*
X510237005Y567715400D01*
X509877795Y567715400D01*
X509019296Y568573899D01*
X508768833Y568494618D01*
X508711480Y568374576D01*
X508711480Y569588708D01*
X508729358Y569545547D01*
X508893361Y569300098D01*
X509102098Y569091361D01*
X509270275Y568978989D01*
X509198901Y568753504D01*
X510057400Y567895005D01*
X510915899Y568753504D01*
X510844525Y568978989D01*
X511012702Y569091361D01*
X511221439Y569300098D01*
X511385442Y569545547D01*
X511498410Y569818275D01*
X511556000Y570107801D01*
X511556000Y570402999D01*
X511498410Y570692525D01*
X511385442Y570965253D01*
X511221439Y571210702D01*
X511012702Y571419439D01*
X510909378Y571488478D01*
X511051842Y571583669D01*
X511269131Y571800958D01*
X511439854Y572056463D01*
X511557450Y572340365D01*
X511617400Y572641753D01*
X511617400Y572949047D01*
X511557450Y573250435D01*
X511439854Y573534337D01*
X511269131Y573789842D01*
X511051842Y574007131D01*
X510796337Y574177854D01*
X510512435Y574295450D01*
X510211047Y574355400D01*
X509903753Y574355400D01*
X509602365Y574295450D01*
X509318463Y574177854D01*
X509062958Y574007131D01*
X508845669Y573789842D01*
X508711480Y573589014D01*
X508711480Y573957511D01*
X509255970Y574502000D01*
X512109508Y574502000D01*
X512155440Y574497476D01*
X512201372Y574502000D01*
X512338732Y574515529D01*
X512514980Y574568993D01*
X512677412Y574655814D01*
X512819784Y574772656D01*
X512849070Y574808341D01*
X513044960Y575004231D01*
X513086323Y574942326D01*
X513230486Y574798163D01*
X513339868Y574725076D01*
X513303048Y574656191D01*
X513252512Y574489595D01*
X513235448Y574316341D01*
X513235448Y573616339D01*
X513252512Y573443085D01*
X513303048Y573276489D01*
X513385115Y573122953D01*
X513495558Y572988378D01*
X513522411Y572966340D01*
X513495558Y572944302D01*
X513385115Y572809727D01*
X513303048Y572656191D01*
X513252512Y572489595D01*
X513235448Y572316341D01*
X513235448Y571616339D01*
X513252512Y571443085D01*
X513303048Y571276489D01*
X513385115Y571122953D01*
X513495558Y570988378D01*
X513630133Y570877935D01*
X513704796Y570838027D01*
X513705514Y570835660D01*
X513792335Y570673228D01*
X513909177Y570530856D01*
X513944856Y570501575D01*
X514212560Y570233871D01*
X514212561Y568891888D01*
X514200928Y568884115D01*
X513994085Y568677272D01*
X513831570Y568434051D01*
X513719628Y568163798D01*
X513662560Y567876900D01*
X513662560Y567584380D01*
X513719628Y567297482D01*
X513831570Y567027229D01*
X513994085Y566784008D01*
X514125940Y566652153D01*
X514053380Y566630142D01*
X513943066Y566571177D01*
X513846375Y566491825D01*
X513767023Y566395134D01*
X513708058Y566284820D01*
X513671748Y566165122D01*
X513659488Y566040640D01*
X513662560Y565476390D01*
X513821310Y565317640D01*
X515020560Y565317640D01*
X515020560Y565337640D01*
X515274560Y565337640D01*
X515274560Y565317640D01*
X515294560Y565317640D01*
X515294560Y565063640D01*
X515274560Y565063640D01*
X515274560Y563864390D01*
X515433310Y563705640D01*
X515997560Y563702568D01*
X516122042Y563714828D01*
X516241740Y563751138D01*
X516352054Y563810103D01*
X516448745Y563889455D01*
X516507260Y563960757D01*
X516507261Y528911020D01*
X484539760Y528911020D01*
X484539760Y530716233D01*
X484597200Y530716233D01*
X484597200Y530394167D01*
X484660032Y530078288D01*
X484783282Y529780737D01*
X484962213Y529512948D01*
X485189948Y529285213D01*
X485457737Y529106282D01*
X485755288Y528983032D01*
X486071167Y528920200D01*
X486393233Y528920200D01*
X486709112Y528983032D01*
X487006663Y529106282D01*
X487274452Y529285213D01*
X487502187Y529512948D01*
X487681118Y529780737D01*
X487804368Y530078288D01*
X487867200Y530394167D01*
X487867200Y530716233D01*
X487804368Y531032112D01*
X487681118Y531329663D01*
X487502187Y531597452D01*
X487274452Y531825187D01*
X487006663Y532004118D01*
X486709112Y532127368D01*
X486393233Y532190200D01*
X486071167Y532190200D01*
X485755288Y532127368D01*
X485457737Y532004118D01*
X485189948Y531825187D01*
X484962213Y531597452D01*
X484783282Y531329663D01*
X484660032Y531032112D01*
X484597200Y530716233D01*
X484539760Y530716233D01*
X484539760Y538082860D01*
X485701708Y538082860D01*
X485704780Y537518610D01*
X485863530Y537359860D01*
X487062780Y537359860D01*
X487062780Y538559110D01*
X487316780Y538559110D01*
X487316780Y537359860D01*
X488516030Y537359860D01*
X488674780Y537518610D01*
X488677852Y538082860D01*
X488665592Y538207342D01*
X488629282Y538327040D01*
X488570317Y538437354D01*
X488490965Y538534045D01*
X488394274Y538613397D01*
X488283960Y538672362D01*
X488164262Y538708672D01*
X488039780Y538720932D01*
X487475530Y538717860D01*
X487316780Y538559110D01*
X487062780Y538559110D01*
X486904030Y538717860D01*
X486339780Y538720932D01*
X486215298Y538708672D01*
X486095600Y538672362D01*
X485985286Y538613397D01*
X485888595Y538534045D01*
X485809243Y538437354D01*
X485750278Y538327040D01*
X485713968Y538207342D01*
X485701708Y538082860D01*
X484539760Y538082860D01*
X484539760Y548245400D01*
X485714408Y548245400D01*
X485717480Y547681150D01*
X485876230Y547522400D01*
X487075480Y547522400D01*
X487075480Y548721650D01*
X486916730Y548880400D01*
X486352480Y548883472D01*
X486227998Y548871212D01*
X486108300Y548834902D01*
X485997986Y548775937D01*
X485901295Y548696585D01*
X485821943Y548599894D01*
X485762978Y548489580D01*
X485726668Y548369882D01*
X485714408Y548245400D01*
X484539760Y548245400D01*
X484539760Y551627940D01*
X485716948Y551627940D01*
X485729208Y551503458D01*
X485765518Y551383760D01*
X485824483Y551273446D01*
X485903835Y551176755D01*
X486000526Y551097403D01*
X486110840Y551038438D01*
X486230538Y551002128D01*
X486355020Y550989868D01*
X486919270Y550992940D01*
X487078020Y551151690D01*
X487078020Y552350940D01*
X485878770Y552350940D01*
X485720020Y552192190D01*
X485716948Y551627940D01*
X484539760Y551627940D01*
X484539760Y564320320D01*
X485716948Y564320320D01*
X485729208Y564195838D01*
X485765518Y564076140D01*
X485824483Y563965826D01*
X485903835Y563869135D01*
X486000526Y563789783D01*
X486110840Y563730818D01*
X486230538Y563694508D01*
X486355020Y563682248D01*
X486919270Y563685320D01*
X487078020Y563844070D01*
X487078020Y565043320D01*
X487332020Y565043320D01*
X487332020Y563844070D01*
X487490770Y563685320D01*
X488055020Y563682248D01*
X488179502Y563694508D01*
X488299200Y563730818D01*
X488409514Y563789783D01*
X488506205Y563869135D01*
X488585557Y563965826D01*
X488644522Y564076140D01*
X488680832Y564195838D01*
X488693092Y564320320D01*
X488690020Y564884570D01*
X488531270Y565043320D01*
X487332020Y565043320D01*
X487078020Y565043320D01*
X485878770Y565043320D01*
X485720020Y564884570D01*
X485716948Y564320320D01*
X484539760Y564320320D01*
X484539760Y572697240D01*
X485556928Y572697240D01*
X485569188Y572572758D01*
X485605498Y572453060D01*
X485664463Y572342746D01*
X485743815Y572246055D01*
X485840506Y572166703D01*
X485950820Y572107738D01*
X486070518Y572071428D01*
X486195000Y572059168D01*
X486759250Y572062240D01*
X486918000Y572220990D01*
X486918000Y573420240D01*
X487172000Y573420240D01*
X487172000Y572220990D01*
X487330750Y572062240D01*
X487895000Y572059168D01*
X488019482Y572071428D01*
X488139180Y572107738D01*
X488249494Y572166703D01*
X488346185Y572246055D01*
X488425537Y572342746D01*
X488484502Y572453060D01*
X488520812Y572572758D01*
X488533072Y572697240D01*
X488530000Y573261490D01*
X488371250Y573420240D01*
X487172000Y573420240D01*
X486918000Y573420240D01*
X485718750Y573420240D01*
X485560000Y573261490D01*
X485556928Y572697240D01*
X484539760Y572697240D01*
X484539760Y592156920D01*
X485556928Y592156920D01*
X485560000Y591592670D01*
X485718750Y591433920D01*
X486918000Y591433920D01*
X486918000Y592633170D01*
X487172000Y592633170D01*
X487172000Y591433920D01*
X488371250Y591433920D01*
X488530000Y591592670D01*
X488533072Y592156920D01*
X488520812Y592281402D01*
X488484502Y592401100D01*
X488425537Y592511414D01*
X488346185Y592608105D01*
X488249494Y592687457D01*
X488139180Y592746422D01*
X488019482Y592782732D01*
X487895000Y592794992D01*
X487330750Y592791920D01*
X487172000Y592633170D01*
X486918000Y592633170D01*
X486759250Y592791920D01*
X486195000Y592794992D01*
X486070518Y592782732D01*
X485950820Y592746422D01*
X485840506Y592687457D01*
X485743815Y592608105D01*
X485664463Y592511414D01*
X485605498Y592401100D01*
X485569188Y592281402D01*
X485556928Y592156920D01*
X484539760Y592156920D01*
X484539760Y596019633D01*
X484714040Y596019633D01*
X484714040Y595697567D01*
X484776872Y595381688D01*
X484900122Y595084137D01*
X485079053Y594816348D01*
X485306788Y594588613D01*
X485574577Y594409682D01*
X485872128Y594286432D01*
X486188007Y594223600D01*
X486510073Y594223600D01*
X486825952Y594286432D01*
X487123503Y594409682D01*
X487391292Y594588613D01*
X487619027Y594816348D01*
X487797958Y595084137D01*
X487921208Y595381688D01*
X487984040Y595697567D01*
X487984040Y596019633D01*
X487921208Y596335512D01*
X487797958Y596633063D01*
X487619027Y596900852D01*
X487391292Y597128587D01*
X487123503Y597307518D01*
X486825952Y597430768D01*
X486510073Y597493600D01*
X486188007Y597493600D01*
X485872128Y597430768D01*
X485574577Y597307518D01*
X485306788Y597128587D01*
X485079053Y596900852D01*
X484900122Y596633063D01*
X484776872Y596335512D01*
X484714040Y596019633D01*
X484539760Y596019633D01*
X484539760Y597759320D01*
X516507260Y597759320D01*
X516507260Y568328524D01*
G37*
%TD.AperFunction*%
%TD*%
M02*
