M48
; DRILL file {KiCad (5.1.10)-1} date 08/05/21 17:06:20
; FORMAT={-:-/ absolute / inch / decimal}
; #@! TF.CreationDate,2021-08-05T17:06:20+02:00
; #@! TF.GenerationSoftware,Kicad,Pcbnew,(5.1.10)-1
; #@! TF.FileFunction,Plated,1,2,PTH
FMAT,2
INCH
T1C0.0157
T2C0.0354
T3C0.0394
T4C0.0400
%
G90
G05
T1
X19.2922Y22.5291
X19.3Y21.11
X19.3Y20.988
X19.326Y21.594
X19.326Y21.516
X19.337Y21.648
X19.365Y20.875
X19.397Y21.523
X19.399Y21.443
X19.4Y21.585
X19.5899Y22.78
X19.593Y22.07
X19.7108Y22.1031
X19.7199Y22.78
X19.726Y22.203
X19.8105Y22.7335
X19.8109Y22.2032
X19.889Y22.1959
X19.889Y22.0199
X19.9309Y22.6615
X19.94Y22.195
X19.94Y22.028
X19.977Y20.943
X20.1698Y22.9509
X20.17Y22.716
X20.2319Y22.6615
T2
X19.375Y23.48
X19.375Y23.38
X19.375Y23.28
X19.375Y23.18
X19.375Y23.08
X19.375Y22.98
X19.375Y22.88
X19.375Y22.78
X20.075Y23.48
X20.075Y23.38
X20.075Y23.28
X20.075Y23.18
X20.075Y23.08
X20.075Y22.98
X20.075Y22.88
X20.075Y22.78
T3
X19.175Y23.2798
X19.175Y23.1798
X19.175Y23.0798
X19.175Y22.7806
X19.175Y22.6806
X19.175Y22.5806
X19.1807Y21.1509
X19.1807Y21.0509
X19.1812Y21.551
X19.1812Y21.451
X19.1812Y21.351
X19.1813Y22.3508
X19.1813Y22.2508
X19.1813Y22.0511
X19.1813Y21.9511
X19.1813Y21.8511
X19.1813Y21.7511
X20.2814Y22.3516
X20.2814Y22.2516
T4
X19.481Y22.451
X19.481Y22.351
X19.481Y22.251
X19.481Y22.151
X19.481Y22.051
X19.481Y21.951
X19.481Y21.851
X19.481Y21.751
X19.481Y21.651
X19.481Y21.551
X19.481Y21.451
X19.481Y21.351
X19.481Y21.251
X19.481Y21.151
X19.481Y21.051
X20.081Y22.451
X20.081Y22.351
X20.081Y22.251
X20.081Y22.151
X20.081Y22.051
X20.081Y21.951
X20.081Y21.851
X20.081Y21.751
X20.081Y21.651
X20.081Y21.551
X20.081Y21.451
X20.081Y21.351
X20.081Y21.251
X20.081Y21.151
X20.081Y21.051
T0
M30
