%TF.GenerationSoftware,KiCad,Pcbnew,(5.1.10)-1*%
%TF.CreationDate,2021-08-05T17:04:43+02:00*%
%TF.ProjectId,kiCAD_projects,6b694341-445f-4707-926f-6a656374732e,rev?*%
%TF.SameCoordinates,Original*%
%TF.FileFunction,Copper,L2,Bot*%
%TF.FilePolarity,Positive*%
%FSLAX46Y46*%
G04 Gerber Fmt 4.6, Leading zero omitted, Abs format (unit mm)*
G04 Created by KiCad (PCBNEW (5.1.10)-1) date 2021-08-05 17:04:43*
%MOMM*%
%LPD*%
G01*
G04 APERTURE LIST*
%TA.AperFunction,ComponentPad*%
%ADD10O,1.700000X1.700000*%
%TD*%
%TA.AperFunction,ComponentPad*%
%ADD11R,1.700000X1.700000*%
%TD*%
%TA.AperFunction,ComponentPad*%
%ADD12R,1.350000X1.350000*%
%TD*%
%TA.AperFunction,ComponentPad*%
%ADD13C,1.350000*%
%TD*%
%TA.AperFunction,ComponentPad*%
%ADD14R,1.727200X1.727200*%
%TD*%
%TA.AperFunction,ComponentPad*%
%ADD15C,1.727200*%
%TD*%
%TA.AperFunction,ViaPad*%
%ADD16C,0.800000*%
%TD*%
%TA.AperFunction,Conductor*%
%ADD17C,0.900000*%
%TD*%
%TA.AperFunction,Conductor*%
%ADD18C,0.600000*%
%TD*%
%TA.AperFunction,Conductor*%
%ADD19C,0.500000*%
%TD*%
G04 APERTURE END LIST*
D10*
%TO.P,J5,2*%
%TO.N,Net-(J5-Pad2)*%
X515147560Y567730640D03*
D11*
%TO.P,J5,1*%
%TO.N,GND*%
X515147560Y565190640D03*
%TD*%
D10*
%TO.P,J3,2*%
%TO.N,Net-(J3-Pad2)*%
X487205020Y567710320D03*
D11*
%TO.P,J3,1*%
%TO.N,GND*%
X487205020Y565170320D03*
%TD*%
D12*
%TO.P,U1,1*%
%TO.N,Net-(A1-Pad5V)*%
X509905000Y578612000D03*
D13*
%TO.P,U1,2*%
%TO.N,Net-(R2-Pad2)*%
X509905000Y581152000D03*
%TO.P,U1,3*%
%TO.N,Net-(R1-Pad2)*%
X509905000Y583692000D03*
%TO.P,U1,4*%
%TO.N,N/C*%
X509905000Y586232000D03*
%TO.P,U1,5*%
X509905000Y588772000D03*
%TO.P,U1,6*%
%TO.N,Net-(J2-Pad3)*%
X509905000Y591312000D03*
%TO.P,U1,7*%
%TO.N,GND*%
X509905000Y593852000D03*
%TO.P,U1,8*%
%TO.N,Net-(J2-Pad2)*%
X509905000Y596392000D03*
%TO.P,U1,9*%
%TO.N,N/C*%
X492125000Y596392000D03*
%TO.P,U1,10*%
X492125000Y593852000D03*
%TO.P,U1,11*%
X492125000Y591312000D03*
%TO.P,U1,12*%
X492125000Y588772000D03*
%TO.P,U1,13*%
X492125000Y586232000D03*
%TO.P,U1,14*%
X492125000Y583692000D03*
%TO.P,U1,15*%
X492125000Y581152000D03*
%TO.P,U1,16*%
%TO.N,Net-(A1-PadD2)*%
X492125000Y578612000D03*
%TD*%
D14*
%TO.P,A1,D1*%
%TO.N,N/C*%
X494817400Y570255400D03*
D15*
%TO.P,A1,D0*%
X494817400Y567715400D03*
%TO.P,A1,RST1*%
X494817400Y565175400D03*
%TO.P,A1,GND1*%
X494817400Y562635400D03*
%TO.P,A1,D2*%
%TO.N,Net-(A1-PadD2)*%
X494817400Y560095400D03*
%TO.P,A1,D3*%
%TO.N,Net-(A1-PadD3)*%
X494817400Y557555400D03*
%TO.P,A1,D4*%
%TO.N,N/C*%
X494817400Y555015400D03*
%TO.P,A1,D5*%
%TO.N,Net-(A1-PadD5)*%
X494817400Y552475400D03*
%TO.P,A1,D6*%
%TO.N,Net-(A1-PadD6)*%
X494817400Y549935400D03*
%TO.P,A1,D7*%
%TO.N,Net-(A1-PadD7)*%
X494817400Y547395400D03*
%TO.P,A1,D8*%
%TO.N,Net-(A1-PadD8)*%
X494817400Y544855400D03*
%TO.P,A1,D9*%
%TO.N,Net-(A1-PadD9)*%
X494817400Y542315400D03*
%TO.P,A1,D10*%
%TO.N,Net-(A1-PadD10)*%
X494817400Y539775400D03*
%TO.P,A1,D11*%
%TO.N,Net-(A1-PadD11)*%
X494817400Y537235400D03*
%TO.P,A1,D12*%
%TO.N,N/C*%
X494817400Y534695400D03*
%TO.P,A1,D13*%
X510057400Y534695400D03*
%TO.P,A1,3V3*%
X510057400Y537235400D03*
%TO.P,A1,AREF*%
X510057400Y539775400D03*
%TO.P,A1,A0*%
%TO.N,Net-(A1-PadA0)*%
X510057400Y542315400D03*
%TO.P,A1,A1*%
%TO.N,N/C*%
X510057400Y544855400D03*
%TO.P,A1,A2*%
X510057400Y547395400D03*
%TO.P,A1,A3*%
X510057400Y549935400D03*
%TO.P,A1,A4*%
X510057400Y552475400D03*
%TO.P,A1,A5*%
X510057400Y555015400D03*
%TO.P,A1,A6*%
X510057400Y557555400D03*
%TO.P,A1,A7*%
X510057400Y560095400D03*
%TO.P,A1,5V*%
%TO.N,Net-(A1-Pad5V)*%
X510057400Y562635400D03*
%TO.P,A1,RST2*%
%TO.N,N/C*%
X510057400Y565175400D03*
%TO.P,A1,GND2*%
%TO.N,GND*%
X510057400Y567715400D03*
%TO.P,A1,VIN*%
%TO.N,Net-(A1-PadVIN)*%
X510057400Y570255400D03*
%TD*%
D10*
%TO.P,J2,3*%
%TO.N,Net-(J2-Pad3)*%
X487045000Y586226920D03*
%TO.P,J2,2*%
%TO.N,Net-(J2-Pad2)*%
X487045000Y588766920D03*
D11*
%TO.P,J2,1*%
%TO.N,GND*%
X487045000Y591306920D03*
%TD*%
D10*
%TO.P,J1,2*%
%TO.N,Net-(J1-Pad2)*%
X487189780Y534692860D03*
D11*
%TO.P,J1,1*%
%TO.N,GND*%
X487189780Y537232860D03*
%TD*%
D10*
%TO.P,J4,4*%
%TO.N,Net-(A1-PadD7)*%
X487205020Y560097940D03*
%TO.P,J4,3*%
%TO.N,Net-(A1-PadD8)*%
X487205020Y557557940D03*
%TO.P,J4,2*%
%TO.N,Net-(A1-PadD9)*%
X487205020Y555017940D03*
D11*
%TO.P,J4,1*%
%TO.N,GND*%
X487205020Y552477940D03*
%TD*%
D10*
%TO.P,J6,3*%
%TO.N,Net-(A1-Pad5V)*%
X487202480Y542315400D03*
%TO.P,J6,2*%
%TO.N,Net-(A1-PadA0)*%
X487202480Y544855400D03*
D11*
%TO.P,J6,1*%
%TO.N,GND*%
X487202480Y547395400D03*
%TD*%
D10*
%TO.P,J7,3*%
%TO.N,Net-(A1-PadVIN)*%
X487045000Y578627240D03*
%TO.P,J7,2*%
%TO.N,Net-(A1-Pad5V)*%
X487045000Y576087240D03*
D11*
%TO.P,J7,1*%
%TO.N,GND*%
X487045000Y573547240D03*
%TD*%
D16*
%TO.N,Net-(A1-Pad5V)*%
X490021880Y572239140D03*
%TO.N,Net-(A1-PadD11)*%
X506476000Y563753000D03*
X506476000Y559511200D03*
%TO.N,Net-(A1-PadD10)*%
X512318000Y576986400D03*
X505180600Y559305460D03*
X505180600Y563775860D03*
X512312920Y582952860D03*
%TO.N,Net-(A1-PadD9)*%
X492734600Y544652200D03*
X490880400Y546506400D03*
%TO.N,Net-(A1-PadD8)*%
X490880400Y548487600D03*
X492683800Y546684200D03*
%TO.N,Net-(A1-PadD7)*%
X492760000Y548259000D03*
X491159800Y549859200D03*
%TO.N,Net-(A1-PadD3)*%
X513890260Y575602100D03*
X506244860Y575602100D03*
X503196860Y563961280D03*
X500654320Y561418740D03*
%TO.N,Net-(A1-PadA0)*%
X507415800Y531952200D03*
X490220000Y536194000D03*
X491871000Y530225000D03*
X490220000Y533095200D03*
%TO.N,Net-(A1-PadD2)*%
X503186700Y577430900D03*
X501040400Y563956200D03*
X497662200Y560578000D03*
X500885460Y578612000D03*
X497583460Y578612000D03*
%TD*%
D17*
%TO.N,Net-(A1-PadVIN)*%
X487646980Y578627240D02*
X487045000Y578627240D01*
X490329220Y575945000D02*
X487646980Y578627240D01*
X503936000Y575945000D02*
X490329220Y575945000D01*
X505714000Y574167000D02*
X503936000Y575945000D01*
X505714000Y571881000D02*
X505714000Y574167000D01*
X507365000Y570230000D02*
X505714000Y571881000D01*
X510032000Y570230000D02*
X507365000Y570230000D01*
%TO.N,Net-(A1-Pad5V)*%
X485724200Y542290000D02*
X487172000Y542290000D01*
X484581200Y543433000D02*
X485724200Y542290000D01*
X484581200Y562193440D02*
X484581200Y543433000D01*
X484581200Y562193440D02*
X484581200Y569793120D01*
X484581200Y569854080D02*
X485292400Y570565280D01*
X484581200Y569793120D02*
X484581200Y569854080D01*
X485292400Y570565280D02*
X489399580Y570565280D01*
X489399580Y570565280D02*
X490021880Y571187580D01*
X490021880Y571187580D02*
X490021880Y572239140D01*
X490021880Y572239140D02*
X490021880Y572239140D01*
D18*
%TO.N,Net-(A1-PadD11)*%
X506476000Y561162200D02*
X506476000Y559511200D01*
X506476000Y563753000D02*
X506476000Y561162200D01*
%TO.N,Net-(A1-PadD10)*%
X505180600Y561007260D02*
X505180600Y559305460D01*
X505180600Y563775860D02*
X505180600Y561007260D01*
X512318000Y582947780D02*
X512312920Y582952860D01*
X512318000Y576986400D02*
X512318000Y582947780D01*
%TO.N,Net-(A1-PadD9)*%
X492734600Y544652200D02*
X490880400Y546506400D01*
%TO.N,Net-(A1-PadD8)*%
X490880400Y548487600D02*
X492683800Y546684200D01*
%TO.N,Net-(A1-PadD7)*%
X492760000Y548259000D02*
X491159800Y549859200D01*
%TO.N,Net-(A1-PadD3)*%
X513890260Y575602100D02*
X506244860Y575602100D01*
X503196860Y563961280D02*
X500654320Y561418740D01*
%TO.N,Net-(A1-PadA0)*%
X507415800Y531952200D02*
X505688600Y530225000D01*
X505688600Y530225000D02*
X491871000Y530225000D01*
X490220000Y533095200D02*
X490220000Y536194000D01*
D19*
%TO.N,Net-(A1-PadD2)*%
X502005600Y578612000D02*
X503186700Y577430900D01*
X503186700Y577430900D02*
X503199400Y577418200D01*
X501040400Y563956200D02*
X497662200Y560578000D01*
X502005600Y578612000D02*
X500885460Y578612000D01*
X497583460Y578612000D02*
X492125000Y578612000D01*
%TD*%
M02*
