%TF.GenerationSoftware,KiCad,Pcbnew,(5.1.10)-1*%
%TF.CreationDate,2021-08-05T17:53:58+02:00*%
%TF.ProjectId,mp3_buttons_pcb_Vlm_side,6d70335f-6275-4747-946f-6e735f706362,rev?*%
%TF.SameCoordinates,Original*%
%TF.FileFunction,Copper,L1,Top*%
%TF.FilePolarity,Positive*%
%FSLAX46Y46*%
G04 Gerber Fmt 4.6, Leading zero omitted, Abs format (unit mm)*
G04 Created by KiCad (PCBNEW (5.1.10)-1) date 2021-08-05 17:53:58*
%MOMM*%
%LPD*%
G01*
G04 APERTURE LIST*
%TA.AperFunction,ComponentPad*%
%ADD10R,1.508000X1.508000*%
%TD*%
%TA.AperFunction,ComponentPad*%
%ADD11C,1.508000*%
%TD*%
%TA.AperFunction,ComponentPad*%
%ADD12R,1.700000X1.700000*%
%TD*%
%TA.AperFunction,ComponentPad*%
%ADD13O,1.700000X1.700000*%
%TD*%
%TA.AperFunction,Conductor*%
%ADD14C,0.600000*%
%TD*%
%TA.AperFunction,Conductor*%
%ADD15C,0.900000*%
%TD*%
%TA.AperFunction,Conductor*%
%ADD16C,0.254000*%
%TD*%
%TA.AperFunction,Conductor*%
%ADD17C,0.100000*%
%TD*%
G04 APERTURE END LIST*
D10*
%TO.P,RV1,1*%
%TO.N,GND*%
X201376280Y-136355320D03*
D11*
%TO.P,RV1,2*%
%TO.N,Net-(J1-Pad2)*%
X201376280Y-140355320D03*
%TO.P,RV1,3*%
%TO.N,+5V*%
X201376280Y-144355320D03*
%TD*%
D12*
%TO.P,J1,1*%
%TO.N,GND*%
X196469000Y-137457180D03*
D13*
%TO.P,J1,2*%
%TO.N,Net-(J1-Pad2)*%
X196469000Y-139997180D03*
%TO.P,J1,3*%
%TO.N,+5V*%
X196469000Y-142537180D03*
%TD*%
D14*
%TO.N,Net-(J1-Pad2)*%
X201018140Y-139997180D02*
X201376280Y-140355320D01*
X196469000Y-139997180D02*
X201018140Y-139997180D01*
D15*
%TO.N,+5V*%
X199558140Y-142537180D02*
X201376280Y-144355320D01*
X196469000Y-142537180D02*
X199558140Y-142537180D01*
%TD*%
D16*
%TO.N,GND*%
X205318425Y-129411140D02*
X205347815Y-129420013D01*
X205374911Y-129434421D01*
X205398697Y-129453820D01*
X205418262Y-129477470D01*
X205432862Y-129504471D01*
X205441938Y-129533793D01*
X205448312Y-129594439D01*
X205445938Y-150071344D01*
X205442722Y-150104147D01*
X205442581Y-150104614D01*
X205442353Y-150105044D01*
X205442045Y-150105421D01*
X205441674Y-150105728D01*
X205441243Y-150105961D01*
X205440779Y-150106104D01*
X205410242Y-150109314D01*
X193661900Y-150106915D01*
X193661900Y-138307180D01*
X194980928Y-138307180D01*
X194993188Y-138431662D01*
X195029498Y-138551360D01*
X195088463Y-138661674D01*
X195167815Y-138758365D01*
X195264506Y-138837717D01*
X195374820Y-138896682D01*
X195447380Y-138918693D01*
X195315525Y-139050548D01*
X195153010Y-139293769D01*
X195041068Y-139564022D01*
X194984000Y-139850920D01*
X194984000Y-140143440D01*
X195041068Y-140430338D01*
X195153010Y-140700591D01*
X195315525Y-140943812D01*
X195522368Y-141150655D01*
X195696760Y-141267180D01*
X195522368Y-141383705D01*
X195315525Y-141590548D01*
X195153010Y-141833769D01*
X195041068Y-142104022D01*
X194984000Y-142390920D01*
X194984000Y-142683440D01*
X195041068Y-142970338D01*
X195153010Y-143240591D01*
X195315525Y-143483812D01*
X195522368Y-143690655D01*
X195765589Y-143853170D01*
X196035842Y-143965112D01*
X196322740Y-144022180D01*
X196615260Y-144022180D01*
X196902158Y-143965112D01*
X197172411Y-143853170D01*
X197415632Y-143690655D01*
X197484107Y-143622180D01*
X199108719Y-143622180D01*
X199989420Y-144502881D01*
X200040658Y-144760476D01*
X200145364Y-145013258D01*
X200297373Y-145240756D01*
X200490844Y-145434227D01*
X200718342Y-145586236D01*
X200971124Y-145690942D01*
X201239475Y-145744320D01*
X201513085Y-145744320D01*
X201781436Y-145690942D01*
X202034218Y-145586236D01*
X202261716Y-145434227D01*
X202455187Y-145240756D01*
X202607196Y-145013258D01*
X202711902Y-144760476D01*
X202765280Y-144492125D01*
X202765280Y-144218515D01*
X202711902Y-143950164D01*
X202607196Y-143697382D01*
X202455187Y-143469884D01*
X202261716Y-143276413D01*
X202034218Y-143124404D01*
X201781436Y-143019698D01*
X201523841Y-142968460D01*
X200363035Y-141807654D01*
X200329062Y-141766258D01*
X200163850Y-141630671D01*
X199975360Y-141529921D01*
X199770837Y-141467880D01*
X199611434Y-141452180D01*
X199611426Y-141452180D01*
X199558140Y-141446932D01*
X199504854Y-141452180D01*
X197484107Y-141452180D01*
X197415632Y-141383705D01*
X197241240Y-141267180D01*
X197415632Y-141150655D01*
X197622475Y-140943812D01*
X197630247Y-140932180D01*
X200111780Y-140932180D01*
X200145364Y-141013258D01*
X200297373Y-141240756D01*
X200490844Y-141434227D01*
X200718342Y-141586236D01*
X200971124Y-141690942D01*
X201239475Y-141744320D01*
X201513085Y-141744320D01*
X201781436Y-141690942D01*
X202034218Y-141586236D01*
X202261716Y-141434227D01*
X202455187Y-141240756D01*
X202607196Y-141013258D01*
X202711902Y-140760476D01*
X202765280Y-140492125D01*
X202765280Y-140218515D01*
X202711902Y-139950164D01*
X202607196Y-139697382D01*
X202455187Y-139469884D01*
X202261716Y-139276413D01*
X202034218Y-139124404D01*
X201781436Y-139019698D01*
X201513085Y-138966320D01*
X201239475Y-138966320D01*
X200971124Y-139019698D01*
X200868564Y-139062180D01*
X197630247Y-139062180D01*
X197622475Y-139050548D01*
X197490620Y-138918693D01*
X197563180Y-138896682D01*
X197673494Y-138837717D01*
X197770185Y-138758365D01*
X197849537Y-138661674D01*
X197908502Y-138551360D01*
X197944812Y-138431662D01*
X197957072Y-138307180D01*
X197954000Y-137742930D01*
X197795250Y-137584180D01*
X196596000Y-137584180D01*
X196596000Y-137604180D01*
X196342000Y-137604180D01*
X196342000Y-137584180D01*
X195142750Y-137584180D01*
X194984000Y-137742930D01*
X194980928Y-138307180D01*
X193661900Y-138307180D01*
X193661900Y-136607180D01*
X194980928Y-136607180D01*
X194984000Y-137171430D01*
X195142750Y-137330180D01*
X196342000Y-137330180D01*
X196342000Y-136130930D01*
X196596000Y-136130930D01*
X196596000Y-137330180D01*
X197795250Y-137330180D01*
X197954000Y-137171430D01*
X197954338Y-137109320D01*
X199984208Y-137109320D01*
X199996468Y-137233802D01*
X200032778Y-137353500D01*
X200091743Y-137463814D01*
X200171095Y-137560505D01*
X200267786Y-137639857D01*
X200378100Y-137698822D01*
X200497798Y-137735132D01*
X200622280Y-137747392D01*
X201090530Y-137744320D01*
X201249280Y-137585570D01*
X201249280Y-136482320D01*
X201503280Y-136482320D01*
X201503280Y-137585570D01*
X201662030Y-137744320D01*
X202130280Y-137747392D01*
X202254762Y-137735132D01*
X202374460Y-137698822D01*
X202484774Y-137639857D01*
X202581465Y-137560505D01*
X202660817Y-137463814D01*
X202719782Y-137353500D01*
X202756092Y-137233802D01*
X202768352Y-137109320D01*
X202765280Y-136641070D01*
X202606530Y-136482320D01*
X201503280Y-136482320D01*
X201249280Y-136482320D01*
X200146030Y-136482320D01*
X199987280Y-136641070D01*
X199984208Y-137109320D01*
X197954338Y-137109320D01*
X197957072Y-136607180D01*
X197944812Y-136482698D01*
X197908502Y-136363000D01*
X197849537Y-136252686D01*
X197770185Y-136155995D01*
X197673494Y-136076643D01*
X197563180Y-136017678D01*
X197443482Y-135981368D01*
X197319000Y-135969108D01*
X196754750Y-135972180D01*
X196596000Y-136130930D01*
X196342000Y-136130930D01*
X196183250Y-135972180D01*
X195619000Y-135969108D01*
X195494518Y-135981368D01*
X195374820Y-136017678D01*
X195264506Y-136076643D01*
X195167815Y-136155995D01*
X195088463Y-136252686D01*
X195029498Y-136363000D01*
X194993188Y-136482698D01*
X194980928Y-136607180D01*
X193661900Y-136607180D01*
X193661900Y-135601320D01*
X199984208Y-135601320D01*
X199987280Y-136069570D01*
X200146030Y-136228320D01*
X201249280Y-136228320D01*
X201249280Y-135125070D01*
X201503280Y-135125070D01*
X201503280Y-136228320D01*
X202606530Y-136228320D01*
X202765280Y-136069570D01*
X202768352Y-135601320D01*
X202756092Y-135476838D01*
X202719782Y-135357140D01*
X202660817Y-135246826D01*
X202581465Y-135150135D01*
X202484774Y-135070783D01*
X202374460Y-135011818D01*
X202254762Y-134975508D01*
X202130280Y-134963248D01*
X201662030Y-134966320D01*
X201503280Y-135125070D01*
X201249280Y-135125070D01*
X201090530Y-134966320D01*
X200622280Y-134963248D01*
X200497798Y-134975508D01*
X200378100Y-135011818D01*
X200267786Y-135070783D01*
X200171095Y-135150135D01*
X200091743Y-135246826D01*
X200032778Y-135357140D01*
X199996468Y-135476838D01*
X199984208Y-135601320D01*
X193661900Y-135601320D01*
X193661900Y-129407383D01*
X205255667Y-129404986D01*
X205318425Y-129411140D01*
%TA.AperFunction,Conductor*%
D17*
G36*
X205318425Y-129411140D02*
G01*
X205347815Y-129420013D01*
X205374911Y-129434421D01*
X205398697Y-129453820D01*
X205418262Y-129477470D01*
X205432862Y-129504471D01*
X205441938Y-129533793D01*
X205448312Y-129594439D01*
X205445938Y-150071344D01*
X205442722Y-150104147D01*
X205442581Y-150104614D01*
X205442353Y-150105044D01*
X205442045Y-150105421D01*
X205441674Y-150105728D01*
X205441243Y-150105961D01*
X205440779Y-150106104D01*
X205410242Y-150109314D01*
X193661900Y-150106915D01*
X193661900Y-138307180D01*
X194980928Y-138307180D01*
X194993188Y-138431662D01*
X195029498Y-138551360D01*
X195088463Y-138661674D01*
X195167815Y-138758365D01*
X195264506Y-138837717D01*
X195374820Y-138896682D01*
X195447380Y-138918693D01*
X195315525Y-139050548D01*
X195153010Y-139293769D01*
X195041068Y-139564022D01*
X194984000Y-139850920D01*
X194984000Y-140143440D01*
X195041068Y-140430338D01*
X195153010Y-140700591D01*
X195315525Y-140943812D01*
X195522368Y-141150655D01*
X195696760Y-141267180D01*
X195522368Y-141383705D01*
X195315525Y-141590548D01*
X195153010Y-141833769D01*
X195041068Y-142104022D01*
X194984000Y-142390920D01*
X194984000Y-142683440D01*
X195041068Y-142970338D01*
X195153010Y-143240591D01*
X195315525Y-143483812D01*
X195522368Y-143690655D01*
X195765589Y-143853170D01*
X196035842Y-143965112D01*
X196322740Y-144022180D01*
X196615260Y-144022180D01*
X196902158Y-143965112D01*
X197172411Y-143853170D01*
X197415632Y-143690655D01*
X197484107Y-143622180D01*
X199108719Y-143622180D01*
X199989420Y-144502881D01*
X200040658Y-144760476D01*
X200145364Y-145013258D01*
X200297373Y-145240756D01*
X200490844Y-145434227D01*
X200718342Y-145586236D01*
X200971124Y-145690942D01*
X201239475Y-145744320D01*
X201513085Y-145744320D01*
X201781436Y-145690942D01*
X202034218Y-145586236D01*
X202261716Y-145434227D01*
X202455187Y-145240756D01*
X202607196Y-145013258D01*
X202711902Y-144760476D01*
X202765280Y-144492125D01*
X202765280Y-144218515D01*
X202711902Y-143950164D01*
X202607196Y-143697382D01*
X202455187Y-143469884D01*
X202261716Y-143276413D01*
X202034218Y-143124404D01*
X201781436Y-143019698D01*
X201523841Y-142968460D01*
X200363035Y-141807654D01*
X200329062Y-141766258D01*
X200163850Y-141630671D01*
X199975360Y-141529921D01*
X199770837Y-141467880D01*
X199611434Y-141452180D01*
X199611426Y-141452180D01*
X199558140Y-141446932D01*
X199504854Y-141452180D01*
X197484107Y-141452180D01*
X197415632Y-141383705D01*
X197241240Y-141267180D01*
X197415632Y-141150655D01*
X197622475Y-140943812D01*
X197630247Y-140932180D01*
X200111780Y-140932180D01*
X200145364Y-141013258D01*
X200297373Y-141240756D01*
X200490844Y-141434227D01*
X200718342Y-141586236D01*
X200971124Y-141690942D01*
X201239475Y-141744320D01*
X201513085Y-141744320D01*
X201781436Y-141690942D01*
X202034218Y-141586236D01*
X202261716Y-141434227D01*
X202455187Y-141240756D01*
X202607196Y-141013258D01*
X202711902Y-140760476D01*
X202765280Y-140492125D01*
X202765280Y-140218515D01*
X202711902Y-139950164D01*
X202607196Y-139697382D01*
X202455187Y-139469884D01*
X202261716Y-139276413D01*
X202034218Y-139124404D01*
X201781436Y-139019698D01*
X201513085Y-138966320D01*
X201239475Y-138966320D01*
X200971124Y-139019698D01*
X200868564Y-139062180D01*
X197630247Y-139062180D01*
X197622475Y-139050548D01*
X197490620Y-138918693D01*
X197563180Y-138896682D01*
X197673494Y-138837717D01*
X197770185Y-138758365D01*
X197849537Y-138661674D01*
X197908502Y-138551360D01*
X197944812Y-138431662D01*
X197957072Y-138307180D01*
X197954000Y-137742930D01*
X197795250Y-137584180D01*
X196596000Y-137584180D01*
X196596000Y-137604180D01*
X196342000Y-137604180D01*
X196342000Y-137584180D01*
X195142750Y-137584180D01*
X194984000Y-137742930D01*
X194980928Y-138307180D01*
X193661900Y-138307180D01*
X193661900Y-136607180D01*
X194980928Y-136607180D01*
X194984000Y-137171430D01*
X195142750Y-137330180D01*
X196342000Y-137330180D01*
X196342000Y-136130930D01*
X196596000Y-136130930D01*
X196596000Y-137330180D01*
X197795250Y-137330180D01*
X197954000Y-137171430D01*
X197954338Y-137109320D01*
X199984208Y-137109320D01*
X199996468Y-137233802D01*
X200032778Y-137353500D01*
X200091743Y-137463814D01*
X200171095Y-137560505D01*
X200267786Y-137639857D01*
X200378100Y-137698822D01*
X200497798Y-137735132D01*
X200622280Y-137747392D01*
X201090530Y-137744320D01*
X201249280Y-137585570D01*
X201249280Y-136482320D01*
X201503280Y-136482320D01*
X201503280Y-137585570D01*
X201662030Y-137744320D01*
X202130280Y-137747392D01*
X202254762Y-137735132D01*
X202374460Y-137698822D01*
X202484774Y-137639857D01*
X202581465Y-137560505D01*
X202660817Y-137463814D01*
X202719782Y-137353500D01*
X202756092Y-137233802D01*
X202768352Y-137109320D01*
X202765280Y-136641070D01*
X202606530Y-136482320D01*
X201503280Y-136482320D01*
X201249280Y-136482320D01*
X200146030Y-136482320D01*
X199987280Y-136641070D01*
X199984208Y-137109320D01*
X197954338Y-137109320D01*
X197957072Y-136607180D01*
X197944812Y-136482698D01*
X197908502Y-136363000D01*
X197849537Y-136252686D01*
X197770185Y-136155995D01*
X197673494Y-136076643D01*
X197563180Y-136017678D01*
X197443482Y-135981368D01*
X197319000Y-135969108D01*
X196754750Y-135972180D01*
X196596000Y-136130930D01*
X196342000Y-136130930D01*
X196183250Y-135972180D01*
X195619000Y-135969108D01*
X195494518Y-135981368D01*
X195374820Y-136017678D01*
X195264506Y-136076643D01*
X195167815Y-136155995D01*
X195088463Y-136252686D01*
X195029498Y-136363000D01*
X194993188Y-136482698D01*
X194980928Y-136607180D01*
X193661900Y-136607180D01*
X193661900Y-135601320D01*
X199984208Y-135601320D01*
X199987280Y-136069570D01*
X200146030Y-136228320D01*
X201249280Y-136228320D01*
X201249280Y-135125070D01*
X201503280Y-135125070D01*
X201503280Y-136228320D01*
X202606530Y-136228320D01*
X202765280Y-136069570D01*
X202768352Y-135601320D01*
X202756092Y-135476838D01*
X202719782Y-135357140D01*
X202660817Y-135246826D01*
X202581465Y-135150135D01*
X202484774Y-135070783D01*
X202374460Y-135011818D01*
X202254762Y-134975508D01*
X202130280Y-134963248D01*
X201662030Y-134966320D01*
X201503280Y-135125070D01*
X201249280Y-135125070D01*
X201090530Y-134966320D01*
X200622280Y-134963248D01*
X200497798Y-134975508D01*
X200378100Y-135011818D01*
X200267786Y-135070783D01*
X200171095Y-135150135D01*
X200091743Y-135246826D01*
X200032778Y-135357140D01*
X199996468Y-135476838D01*
X199984208Y-135601320D01*
X193661900Y-135601320D01*
X193661900Y-129407383D01*
X205255667Y-129404986D01*
X205318425Y-129411140D01*
G37*
%TD.AperFunction*%
%TD*%
M02*
