%TF.GenerationSoftware,KiCad,Pcbnew,(5.1.10)-1*%
%TF.CreationDate,2021-08-05T17:53:58+02:00*%
%TF.ProjectId,mp3_buttons_pcb_Vlm_side,6d70335f-6275-4747-946f-6e735f706362,rev?*%
%TF.SameCoordinates,Original*%
%TF.FileFunction,Legend,Top*%
%TF.FilePolarity,Positive*%
%FSLAX46Y46*%
G04 Gerber Fmt 4.6, Leading zero omitted, Abs format (unit mm)*
G04 Created by KiCad (PCBNEW (5.1.10)-1) date 2021-08-05 17:53:58*
%MOMM*%
%LPD*%
G01*
G04 APERTURE LIST*
%ADD10C,0.150000*%
%ADD11C,0.120000*%
G04 APERTURE END LIST*
D10*
X204295048Y-136388980D02*
X204295048Y-136055647D01*
X203771239Y-136055647D02*
X204771239Y-136055647D01*
X204771239Y-136531838D01*
X204056953Y-136865171D02*
X204056953Y-137341361D01*
X203771239Y-136769933D02*
X204771239Y-137103266D01*
X203771239Y-137436600D01*
X203866477Y-138341361D02*
X203818858Y-138293742D01*
X203771239Y-138150885D01*
X203771239Y-138055647D01*
X203818858Y-137912790D01*
X203914096Y-137817552D01*
X204009334Y-137769933D01*
X204199810Y-137722314D01*
X204342667Y-137722314D01*
X204533143Y-137769933D01*
X204628381Y-137817552D01*
X204723620Y-137912790D01*
X204771239Y-138055647D01*
X204771239Y-138150885D01*
X204723620Y-138293742D01*
X204676000Y-138341361D01*
X204295048Y-138769933D02*
X204295048Y-139103266D01*
X203771239Y-139246123D02*
X203771239Y-138769933D01*
X204771239Y-138769933D01*
X204771239Y-139246123D01*
X203771239Y-140436600D02*
X204771239Y-140436600D01*
X203771239Y-140912790D02*
X204771239Y-140912790D01*
X203771239Y-141484219D01*
X204771239Y-141484219D01*
X203818858Y-141912790D02*
X203771239Y-142055647D01*
X203771239Y-142293742D01*
X203818858Y-142388980D01*
X203866477Y-142436600D01*
X203961715Y-142484219D01*
X204056953Y-142484219D01*
X204152191Y-142436600D01*
X204199810Y-142388980D01*
X204247429Y-142293742D01*
X204295048Y-142103266D01*
X204342667Y-142008028D01*
X204390286Y-141960409D01*
X204485524Y-141912790D01*
X204580762Y-141912790D01*
X204676000Y-141960409D01*
X204723620Y-142008028D01*
X204771239Y-142103266D01*
X204771239Y-142341361D01*
X204723620Y-142484219D01*
X203771239Y-142912790D02*
X204771239Y-142912790D01*
X203771239Y-143388980D02*
X204771239Y-143388980D01*
X204771239Y-143627076D01*
X204723620Y-143769933D01*
X204628381Y-143865171D01*
X204533143Y-143912790D01*
X204342667Y-143960409D01*
X204199810Y-143960409D01*
X204009334Y-143912790D01*
X203914096Y-143865171D01*
X203818858Y-143769933D01*
X203771239Y-143627076D01*
X203771239Y-143388980D01*
X204295048Y-144388980D02*
X204295048Y-144722314D01*
X203771239Y-144865171D02*
X203771239Y-144388980D01*
X204771239Y-144388980D01*
X204771239Y-144865171D01*
D11*
%TO.C,J1*%
X195139000Y-143867180D02*
X197799000Y-143867180D01*
X195139000Y-138727180D02*
X195139000Y-143867180D01*
X197799000Y-138727180D02*
X197799000Y-143867180D01*
X195139000Y-138727180D02*
X197799000Y-138727180D01*
X195139000Y-137457180D02*
X195139000Y-136127180D01*
X195139000Y-136127180D02*
X196469000Y-136127180D01*
%TD*%
M02*
